<svg width="207" height="39" viewBox="0 0 207 39" fill="none" xmlns="http://www.w3.org/2000/svg">
<path d="M0.869318 30V0.90909H12.0057C14.108 0.90909 15.8551 1.24053 17.2472 1.90341C18.6487 2.55682 19.6951 3.4517 20.3864 4.58807C21.0871 5.72443 21.4375 7.01231 21.4375 8.4517C21.4375 9.63542 21.2102 10.6487 20.7557 11.4915C20.3011 12.3248 19.6903 13.0019 18.9233 13.5227C18.1562 14.0436 17.2992 14.4176 16.3523 14.6449V14.929C17.3845 14.9858 18.3741 15.303 19.321 15.8807C20.2775 16.4489 21.0587 17.2538 21.6648 18.2955C22.2708 19.3371 22.5739 20.5966 22.5739 22.0739C22.5739 23.5795 22.2093 24.9337 21.4801 26.1364C20.7509 27.3295 19.6525 28.2718 18.1847 28.9631C16.7169 29.6544 14.8703 30 12.6449 30H0.869318ZM6.1392 25.5966H11.8068C13.7197 25.5966 15.0975 25.232 15.9403 24.5028C16.7926 23.7642 17.2188 22.8172 17.2188 21.6619C17.2188 20.8002 17.0057 20.0237 16.5795 19.3324C16.1534 18.6316 15.5473 18.0824 14.7614 17.6847C13.9754 17.2775 13.0379 17.0739 11.9489 17.0739H6.1392V25.5966ZM6.1392 13.2812H11.3523C12.2614 13.2812 13.0805 13.1155 13.8097 12.7841C14.5388 12.4432 15.1117 11.965 15.5284 11.3494C15.9545 10.7244 16.1676 9.9858 16.1676 9.13352C16.1676 8.00663 15.7699 7.0786 14.9744 6.34943C14.1884 5.62026 13.0189 5.25568 11.4659 5.25568H6.1392V13.2812ZM26.9311 30V8.18182H31.9169V11.8182H32.1442C32.5419 10.5587 33.2237 9.58807 34.1896 8.90625C35.165 8.21496 36.2777 7.86932 37.5277 7.86932C37.8118 7.86932 38.129 7.88352 38.4794 7.91193C38.8393 7.93087 39.1375 7.96401 39.3743 8.01136V12.7415C39.1565 12.6657 38.8108 12.5994 38.3374 12.5426C37.8733 12.4763 37.4235 12.4432 36.9879 12.4432C36.0504 12.4432 35.2076 12.6468 34.4595 13.054C33.7209 13.4517 33.1385 14.0057 32.7124 14.7159C32.2862 15.4261 32.0732 16.2453 32.0732 17.1733V30H26.9311ZM48.6783 30.4403C47.2957 30.4403 46.0504 30.1941 44.9425 29.7017C43.844 29.1998 42.9728 28.4612 42.3288 27.4858C41.6944 26.5104 41.3771 25.3078 41.3771 23.8778C41.3771 22.6468 41.6044 21.6288 42.0589 20.8239C42.5135 20.0189 43.1338 19.375 43.9197 18.892C44.7057 18.4091 45.5911 18.0445 46.576 17.7983C47.5703 17.5426 48.5978 17.358 49.6584 17.2443C50.9368 17.1117 51.9737 16.9934 52.7692 16.8892C53.5646 16.7756 54.1423 16.6051 54.5021 16.3778C54.8714 16.1411 55.0561 15.7765 55.0561 15.2841V15.1989C55.0561 14.1288 54.7389 13.3002 54.1044 12.7131C53.4699 12.1259 52.5561 11.8324 51.3629 11.8324C50.1035 11.8324 49.1044 12.107 48.3658 12.6562C47.6366 13.2055 47.1442 13.8542 46.8885 14.6023L42.0874 13.9205C42.4661 12.5947 43.0911 11.4867 43.9624 10.5966C44.8336 9.69697 45.8989 9.02462 47.1584 8.57955C48.4179 8.125 49.8099 7.89773 51.3345 7.89773C52.3857 7.89773 53.4321 8.02083 54.4737 8.26705C55.5154 8.51326 56.4671 8.92045 57.3288 9.48864C58.1906 10.0473 58.8819 10.8097 59.4027 11.7756C59.933 12.7415 60.1982 13.9489 60.1982 15.3977V30H55.255V27.0028H55.0845C54.772 27.6089 54.3317 28.1771 53.7635 28.7074C53.2048 29.2282 52.4993 29.6496 51.647 29.9716C50.8042 30.2841 49.8146 30.4403 48.6783 30.4403ZM50.0135 26.6619C51.0457 26.6619 51.9406 26.4583 52.6982 26.0511C53.4557 25.6345 54.0381 25.0852 54.4453 24.4034C54.862 23.7216 55.0703 22.9782 55.0703 22.1733V19.6023C54.9093 19.7348 54.6347 19.858 54.2464 19.9716C53.8677 20.0852 53.4415 20.1847 52.968 20.2699C52.4946 20.3551 52.0258 20.4309 51.5618 20.4972C51.0978 20.5634 50.6953 20.6203 50.3544 20.6676C49.5874 20.7718 48.9008 20.9422 48.2947 21.179C47.6887 21.4157 47.2105 21.7472 46.8601 22.1733C46.5097 22.59 46.3345 23.1297 46.3345 23.7926C46.3345 24.7396 46.6802 25.4545 47.3714 25.9375C48.0627 26.4205 48.9434 26.6619 50.0135 26.6619ZM70.5107 17.2159V30H65.3686V8.18182H70.2834V11.8892H70.5391C71.041 10.6676 71.8411 9.69697 72.9396 8.97727C74.0476 8.25758 75.416 7.89773 77.0447 7.89773C78.5504 7.89773 79.862 8.2197 80.9794 8.86364C82.1063 9.50758 82.9775 10.4403 83.593 11.6619C84.218 12.8835 84.5258 14.3655 84.5163 16.108V30H79.3743V16.9034C79.3743 15.4451 78.9955 14.304 78.2379 13.4801C77.4898 12.6562 76.4529 12.2443 75.1271 12.2443C74.2275 12.2443 73.4273 12.4432 72.7266 12.8409C72.0353 13.2292 71.4908 13.7926 71.093 14.5312C70.7048 15.2699 70.5107 16.1648 70.5107 17.2159ZM97.8402 30.3835C96.1262 30.3835 94.5921 29.9432 93.2379 29.0625C91.8838 28.1818 90.8137 26.9034 90.0277 25.2273C89.2417 23.5511 88.8487 21.5152 88.8487 19.1193C88.8487 16.6951 89.2464 14.6496 90.0419 12.983C90.8468 11.3068 91.9311 10.0426 93.2947 9.19034C94.6584 8.3286 96.1783 7.89773 97.8544 7.89773C99.1328 7.89773 100.184 8.11553 101.008 8.55114C101.832 8.97727 102.485 9.49337 102.968 10.0994C103.451 10.696 103.825 11.2595 104.09 11.7898H104.303V0.90909H109.46V30H104.403V26.5625H104.09C103.825 27.0928 103.442 27.6562 102.94 28.2528C102.438 28.84 101.775 29.3419 100.951 29.7585C100.127 30.1752 99.0902 30.3835 97.8402 30.3835ZM99.2749 26.1648C100.364 26.1648 101.292 25.8712 102.059 25.2841C102.826 24.6875 103.408 23.8589 103.806 22.7983C104.204 21.7377 104.403 20.5019 104.403 19.0909C104.403 17.6799 104.204 16.4536 103.806 15.4119C103.418 14.3703 102.84 13.5606 102.073 12.983C101.316 12.4053 100.383 12.1165 99.2749 12.1165C98.129 12.1165 97.1726 12.4148 96.4055 13.0114C95.6385 13.608 95.0608 14.4318 94.6726 15.483C94.2843 16.5341 94.0902 17.7367 94.0902 19.0909C94.0902 20.4545 94.2843 21.6714 94.6726 22.7415C95.0703 23.8021 95.6527 24.6402 96.4197 25.2557C97.1963 25.8617 98.148 26.1648 99.2749 26.1648ZM115.166 30V0.90909H120.436V25.5824H133.249V30H115.166ZM147.112 30.4261C144.982 30.4261 143.135 29.9574 141.572 29.0199C140.01 28.0824 138.798 26.7708 137.936 25.0852C137.084 23.3996 136.658 21.4299 136.658 19.1761C136.658 16.9223 137.084 14.9479 137.936 13.2528C138.798 11.5578 140.01 10.2415 141.572 9.30398C143.135 8.36648 144.982 7.89773 147.112 7.89773C149.243 7.89773 151.089 8.36648 152.652 9.30398C154.214 10.2415 155.422 11.5578 156.274 13.2528C157.136 14.9479 157.567 16.9223 157.567 19.1761C157.567 21.4299 157.136 23.3996 156.274 25.0852C155.422 26.7708 154.214 28.0824 152.652 29.0199C151.089 29.9574 149.243 30.4261 147.112 30.4261ZM147.141 26.3068C148.296 26.3068 149.262 25.9896 150.038 25.3551C150.815 24.7112 151.393 23.8494 151.771 22.7699C152.16 21.6903 152.354 20.4877 152.354 19.1619C152.354 17.8267 152.16 16.6193 151.771 15.5398C151.393 14.4508 150.815 13.5843 150.038 12.9403C149.262 12.2964 148.296 11.9744 147.141 11.9744C145.957 11.9744 144.972 12.2964 144.186 12.9403C143.41 13.5843 142.827 14.4508 142.439 15.5398C142.06 16.6193 141.871 17.8267 141.871 19.1619C141.871 20.4877 142.06 21.6903 142.439 22.7699C142.827 23.8494 143.41 24.7112 144.186 25.3551C144.972 25.9896 145.957 26.3068 147.141 26.3068ZM171.42 38.6364C169.573 38.6364 167.987 38.3854 166.661 37.8835C165.335 37.3911 164.27 36.7282 163.465 35.8949C162.66 35.0616 162.102 34.1383 161.789 33.125L166.42 32.0028C166.628 32.429 166.931 32.8504 167.329 33.267C167.727 33.6932 168.262 34.0436 168.934 34.3182C169.616 34.6023 170.473 34.7443 171.505 34.7443C172.963 34.7443 174.171 34.3892 175.127 33.679C176.084 32.9782 176.562 31.8229 176.562 30.2131V26.0795H176.306C176.041 26.6098 175.653 27.1544 175.141 27.7131C174.639 28.2718 173.972 28.7405 173.138 29.1193C172.315 29.4981 171.278 29.6875 170.028 29.6875C168.352 29.6875 166.832 29.2945 165.468 28.5085C164.114 27.7131 163.034 26.5294 162.229 24.9574C161.434 23.3759 161.036 21.3968 161.036 19.0199C161.036 16.6241 161.434 14.6023 162.229 12.9545C163.034 11.2973 164.119 10.0426 165.482 9.19034C166.846 8.3286 168.366 7.89773 170.042 7.89773C171.32 7.89773 172.371 8.11553 173.195 8.55114C174.029 8.97727 174.692 9.49337 175.184 10.0994C175.676 10.696 176.05 11.2595 176.306 11.7898H176.59V8.18182H181.661V30.3551C181.661 32.2206 181.216 33.7642 180.326 34.9858C179.436 36.2074 178.219 37.1212 176.675 37.7273C175.132 38.3333 173.38 38.6364 171.42 38.6364ZM171.462 25.6534C172.551 25.6534 173.479 25.3883 174.246 24.858C175.013 24.3277 175.596 23.5653 175.994 22.571C176.391 21.5767 176.59 20.3835 176.59 18.9915C176.59 17.6184 176.391 16.4157 175.994 15.3835C175.605 14.3513 175.028 13.5511 174.261 12.983C173.503 12.4053 172.57 12.1165 171.462 12.1165C170.317 12.1165 169.36 12.4148 168.593 13.0114C167.826 13.608 167.248 14.4271 166.86 15.4688C166.472 16.5009 166.278 17.6752 166.278 18.9915C166.278 20.3267 166.472 21.4962 166.86 22.5C167.258 23.4943 167.84 24.2708 168.607 24.8295C169.384 25.3788 170.335 25.6534 171.462 25.6534ZM196.448 30.4261C194.317 30.4261 192.471 29.9574 190.908 29.0199C189.346 28.0824 188.134 26.7708 187.272 25.0852C186.42 23.3996 185.994 21.4299 185.994 19.1761C185.994 16.9223 186.42 14.9479 187.272 13.2528C188.134 11.5578 189.346 10.2415 190.908 9.30398C192.471 8.36648 194.317 7.89773 196.448 7.89773C198.579 7.89773 200.425 8.36648 201.988 9.30398C203.55 10.2415 204.758 11.5578 205.61 13.2528C206.472 14.9479 206.903 16.9223 206.903 19.1761C206.903 21.4299 206.472 23.3996 205.61 25.0852C204.758 26.7708 203.55 28.0824 201.988 29.0199C200.425 29.9574 198.579 30.4261 196.448 30.4261ZM196.477 26.3068C197.632 26.3068 198.598 25.9896 199.374 25.3551C200.151 24.7112 200.728 23.8494 201.107 22.7699C201.496 21.6903 201.69 20.4877 201.69 19.1619C201.69 17.8267 201.496 16.6193 201.107 15.5398C200.728 14.4508 200.151 13.5843 199.374 12.9403C198.598 12.2964 197.632 11.9744 196.477 11.9744C195.293 11.9744 194.308 12.2964 193.522 12.9403C192.746 13.5843 192.163 14.4508 191.775 15.5398C191.396 16.6193 191.207 17.8267 191.207 19.1619C191.207 20.4877 191.396 21.6903 191.775 22.7699C192.163 23.8494 192.746 24.7112 193.522 25.3551C194.308 25.9896 195.293 26.3068 196.477 26.3068Z" fill="#EE1313"/>
<path d="M0.869318 30H-0.130682V31H0.869318V30ZM0.869318 0.90909V-0.09091H-0.130682V0.90909H0.869318ZM17.2472 1.90341L16.8172 2.8063L16.8246 2.80975L17.2472 1.90341ZM20.3864 4.58807L19.532 5.1078L19.5352 5.11296L20.3864 4.58807ZM20.7557 11.4915L21.6336 11.9703L21.6358 11.9662L20.7557 11.4915ZM18.9233 13.5227L18.3615 12.6954L18.3615 12.6954L18.9233 13.5227ZM16.3523 14.6449L16.1189 13.6725L15.3523 13.8565V14.6449H16.3523ZM16.3523 14.929H15.3523V15.8754L16.2973 15.9275L16.3523 14.929ZM19.321 15.8807L18.8002 16.7344L18.8103 16.7404L19.321 15.8807ZM21.6648 18.2955L20.8004 18.7983L20.8004 18.7983L21.6648 18.2955ZM21.4801 26.1364L22.3334 26.6578L22.3352 26.6548L21.4801 26.1364ZM18.1847 28.9631L17.7586 28.0584L18.1847 28.9631ZM6.1392 25.5966H5.1392V26.5966H6.1392V25.5966ZM15.9403 24.5028L16.5946 25.2591L16.5953 25.2585L15.9403 24.5028ZM16.5795 19.3324L15.7251 19.852L15.7283 19.8571L16.5795 19.3324ZM14.7614 17.6847L14.3013 18.5726L14.3099 18.5769L14.7614 17.6847ZM6.1392 17.0739V16.0739H5.1392V17.0739H6.1392ZM6.1392 13.2812H5.1392V14.2812H6.1392V13.2812ZM13.8097 12.7841L14.2235 13.6945L14.2332 13.69L13.8097 12.7841ZM15.5284 11.3494L14.7022 10.7861L14.7003 10.7889L15.5284 11.3494ZM14.9744 6.34943L14.2943 7.08255L14.2987 7.08658L14.9744 6.34943ZM6.1392 5.25568V4.25568H5.1392V5.25568H6.1392ZM1.86932 30V0.90909H-0.130682V30H1.86932ZM0.869318 1.90909H12.0057V-0.09091H0.869318V1.90909ZM12.0057 1.90909C14.0103 1.90909 15.599 2.22618 16.8172 2.80627L17.6771 1.00055C16.1112 0.254874 14.2056 -0.09091 12.0057 -0.09091V1.90909ZM16.8246 2.80975C18.077 3.39363 18.9592 4.16616 19.532 5.10779L21.2407 4.06835C20.4309 2.73725 19.2204 1.72 17.6697 0.997068L16.8246 2.80975ZM19.5352 5.11296C20.131 6.07919 20.4375 7.18263 20.4375 8.4517H22.4375C22.4375 6.84199 22.0432 5.36967 21.2375 4.06318L19.5352 5.11296ZM20.4375 8.4517C20.4375 9.50829 20.2349 10.3504 19.8755 11.0168L21.6358 11.9662C22.1855 10.9469 22.4375 9.76254 22.4375 8.4517H20.4375ZM19.8778 11.0126C19.4975 11.7098 18.9938 12.2661 18.3615 12.6954L19.485 14.35C20.3869 13.7377 21.1047 12.9399 21.6336 11.9703L19.8778 11.0126ZM18.3615 12.6954C17.6993 13.1451 16.9545 13.4719 16.1189 13.6725L16.5856 15.6173C17.644 15.3633 18.6132 14.942 19.485 14.35L18.3615 12.6954ZM15.3523 14.6449V14.929H17.3523V14.6449H15.3523ZM16.2973 15.9275C17.1527 15.9746 17.9836 16.2362 18.8003 16.7344L19.8418 15.027C18.7645 14.3698 17.6162 13.997 16.4072 13.9305L16.2973 15.9275ZM18.8103 16.7404C19.6084 17.2145 20.2726 17.8912 20.8004 18.7983L22.5291 17.7926C21.8448 16.6164 20.9466 15.6832 19.8318 15.0209L18.8103 16.7404ZM20.8004 18.7983C21.2996 19.6563 21.5739 20.7336 21.5739 22.0739H23.5739C23.5739 20.4596 23.2421 19.0179 22.5291 17.7926L20.8004 18.7983ZM21.5739 22.0739C21.5739 23.4101 21.2527 24.5827 20.625 25.6179L22.3352 26.6548C23.1659 25.2848 23.5739 23.7489 23.5739 22.0739H21.5739ZM20.6268 25.6149C20.0151 26.6159 19.0786 27.4367 17.7586 28.0584L18.6107 29.8678C20.2263 29.1069 21.4868 28.0431 22.3334 26.6578L20.6268 25.6149ZM17.7586 28.0584C16.464 28.6681 14.7746 29 12.6449 29V31C14.966 31 16.9698 30.6406 18.6107 29.8678L17.7586 28.0584ZM12.6449 29H0.869318V31H12.6449V29ZM6.1392 26.5966H11.8068V24.5966H6.1392V26.5966ZM11.8068 26.5966C13.8026 26.5966 15.4787 26.2245 16.5946 25.2591L15.2861 23.7466C14.7164 24.2395 13.6368 24.5966 11.8068 24.5966V26.5966ZM16.5953 25.2585C17.6728 24.3247 18.2188 23.0991 18.2188 21.6619H16.2188C16.2188 22.5353 15.9125 23.2037 15.2854 23.7472L16.5953 25.2585ZM18.2188 21.6619C18.2188 20.6267 17.9602 19.6665 17.4308 18.8076L15.7283 19.8571C16.0512 20.3809 16.2188 20.9737 16.2188 21.6619H18.2188ZM17.434 18.8128C16.9037 17.9408 16.1525 17.2678 15.2129 16.7924L14.3099 18.5769C14.9422 18.8969 15.4031 19.3224 15.7251 19.852L17.434 18.8128ZM15.2214 16.7967C14.2642 16.3008 13.1617 16.0739 11.9489 16.0739V18.0739C12.9141 18.0739 13.6866 18.2541 14.3014 18.5726L15.2214 16.7967ZM11.9489 16.0739H6.1392V18.0739H11.9489V16.0739ZM5.1392 17.0739V25.5966H7.1392V17.0739H5.1392ZM6.1392 14.2812H11.3523V12.2812H6.1392V14.2812ZM11.3523 14.2812C12.3848 14.2812 13.3479 14.0925 14.2235 13.6945L13.3959 11.8737C12.8131 12.1386 12.1379 12.2812 11.3523 12.2812V14.2812ZM14.2332 13.69C15.1119 13.2792 15.8303 12.6874 16.3565 11.91L14.7003 10.7889C14.3932 11.2425 13.9658 11.6072 13.3861 11.8782L14.2332 13.69ZM16.3546 11.9128C16.908 11.1012 17.1676 10.1604 17.1676 9.13352H15.1676C15.1676 9.81122 15.0011 10.3477 14.7022 10.7861L16.3546 11.9128ZM17.1676 9.13352C17.1676 7.74036 16.6624 6.54013 15.6502 5.61228L14.2987 7.08658C14.8774 7.61706 15.1676 8.2729 15.1676 9.13352H17.1676ZM15.6545 5.61632C14.6152 4.65214 13.1591 4.25568 11.4659 4.25568V6.25568C12.8788 6.25568 13.7617 6.58839 14.2943 7.08254L15.6545 5.61632ZM11.4659 4.25568H6.1392V6.25568H11.4659V4.25568ZM5.1392 5.25568V13.2812H7.1392V5.25568H5.1392ZM26.9311 30H25.9311V31H26.9311V30ZM26.9311 8.18182V7.18182H25.9311V8.18182H26.9311ZM31.9169 8.18182H32.9169V7.18182H31.9169V8.18182ZM31.9169 11.8182H30.9169V12.8182H31.9169V11.8182ZM32.1442 11.8182V12.8182H32.8771L33.0978 12.1193L32.1442 11.8182ZM34.1896 8.90625L34.7663 9.72322L34.7679 9.72212L34.1896 8.90625ZM38.4794 7.91193L38.3986 8.90866L38.4127 8.9098L38.4268 8.91055L38.4794 7.91193ZM39.3743 8.01136H40.3743V7.19156L39.5704 7.03078L39.3743 8.01136ZM39.3743 12.7415L39.0458 13.686L40.3743 14.1481V12.7415H39.3743ZM38.3374 12.5426L38.1959 13.5326L38.2071 13.5342L38.2182 13.5355L38.3374 12.5426ZM34.4595 13.054L34.9336 13.9345L34.9376 13.9323L34.4595 13.054ZM32.0732 30V31H33.0732V30H32.0732ZM27.9311 30V8.18182H25.9311V30H27.9311ZM26.9311 9.18182H31.9169V7.18182H26.9311V9.18182ZM30.9169 8.18182V11.8182H32.9169V8.18182H30.9169ZM31.9169 12.8182H32.1442V10.8182H31.9169V12.8182ZM33.0978 12.1193C33.4378 11.0427 33.9999 10.2642 34.7663 9.72322L33.6129 8.08928C32.4475 8.91192 31.6461 10.0748 31.1906 11.517L33.0978 12.1193ZM34.7679 9.72212C35.5662 9.1563 36.4748 8.86932 37.5277 8.86932V6.86932C36.0806 6.86932 34.7638 7.27363 33.6114 8.09038L34.7679 9.72212ZM37.5277 8.86932C37.7794 8.86932 38.0691 8.88194 38.3986 8.90866L38.5602 6.9152C38.189 6.8851 37.8442 6.86932 37.5277 6.86932V8.86932ZM38.4268 8.91055C38.7595 8.92806 39.0057 8.95745 39.1782 8.99194L39.5704 7.03078C39.2694 6.97058 38.919 6.93368 38.532 6.91331L38.4268 8.91055ZM38.3743 8.01136V12.7415H40.3743V8.01136H38.3743ZM39.7028 11.797C39.3778 11.6839 38.9425 11.6081 38.4565 11.5497L38.2182 13.5355C38.6791 13.5908 38.9352 13.6475 39.0458 13.686L39.7028 11.797ZM38.4788 11.5527C37.9714 11.4802 37.4743 11.4432 36.9879 11.4432V13.4432C37.3728 13.4432 37.7753 13.4725 38.1959 13.5326L38.4788 11.5527ZM36.9879 11.4432C35.9006 11.4432 34.8906 11.6808 33.9814 12.1757L34.9376 13.9323C35.5246 13.6128 36.2003 13.4432 36.9879 13.4432V11.4432ZM33.9854 12.1735C33.0905 12.6554 32.3748 13.3349 31.8549 14.2014L33.5699 15.2304C33.9022 14.6765 34.3512 14.248 34.9336 13.9344L33.9854 12.1735ZM31.8549 14.2014C31.3246 15.0852 31.0732 16.0864 31.0732 17.1733H33.0732C33.0732 16.4041 33.2478 15.7671 33.5699 15.2304L31.8549 14.2014ZM31.0732 17.1733V30H33.0732V17.1733H31.0732ZM32.0732 29H26.9311V31H32.0732V29ZM44.9425 29.7017L44.5269 30.6113L44.5363 30.6155L44.9425 29.7017ZM42.3288 27.4858L41.4906 28.0311L41.4943 28.0368L42.3288 27.4858ZM42.0589 20.8239L41.1882 20.3321L41.1882 20.3321L42.0589 20.8239ZM43.9197 18.892L43.3962 18.04L43.3962 18.04L43.9197 18.892ZM46.576 17.7983L46.8185 18.7685L46.825 18.7668L46.576 17.7983ZM49.6584 17.2443L49.5552 16.2496L49.5518 16.25L49.6584 17.2443ZM52.7692 16.8892L52.899 17.8808L52.9106 17.8792L52.7692 16.8892ZM54.5021 16.3778L55.0361 17.2233L55.0418 17.2197L54.5021 16.3778ZM54.1044 12.7131L54.7836 11.9791L54.7836 11.9791L54.1044 12.7131ZM48.3658 12.6562L47.7691 11.8538L47.7641 11.8575L48.3658 12.6562ZM46.8885 14.6023L46.7479 15.5923L47.5671 15.7087L47.8348 14.9257L46.8885 14.6023ZM42.0874 13.9205L41.1258 13.6457L40.8106 14.7492L41.9468 14.9105L42.0874 13.9205ZM43.9624 10.5966L44.677 11.2961L44.6807 11.2923L43.9624 10.5966ZM47.1584 8.57955L47.4916 9.52243L47.4979 9.52016L47.1584 8.57955ZM57.3288 9.48864L56.7784 10.3235L56.7848 10.3277L57.3288 9.48864ZM59.4027 11.7756L58.5225 12.2502L58.5261 12.2568L59.4027 11.7756ZM60.1982 30V31H61.1982V30H60.1982ZM55.255 30H54.255V31H55.255V30ZM55.255 27.0028H56.255V26.0028H55.255V27.0028ZM55.0845 27.0028V26.0028H54.475L54.1957 26.5446L55.0845 27.0028ZM53.7635 28.7074L54.4454 29.4389L54.4458 29.4384L53.7635 28.7074ZM51.647 29.9716L51.9947 30.9092L52.0004 30.9071L51.647 29.9716ZM52.6982 26.0511L53.1716 26.932L53.1801 26.9274L52.6982 26.0511ZM54.4453 24.4034L53.592 23.8819L53.5868 23.8907L54.4453 24.4034ZM55.0703 19.6023H56.0703V17.4833L54.4346 18.8303L55.0703 19.6023ZM54.2464 19.9716L53.9655 19.0118L53.9591 19.0138L54.2464 19.9716ZM52.968 20.2699L53.1452 21.2541L53.1452 21.2541L52.968 20.2699ZM50.3544 20.6676L50.489 21.6585L50.492 21.6581L50.3544 20.6676ZM48.2947 21.179L47.9309 20.2475L47.9309 20.2475L48.2947 21.179ZM46.8601 22.1733L47.6255 22.8169L47.6325 22.8084L46.8601 22.1733ZM47.3714 25.9375L46.7987 26.7573L46.7987 26.7573L47.3714 25.9375ZM48.6783 29.4403C47.416 29.4403 46.3119 29.216 45.3486 28.7879L44.5363 30.6155C45.7889 31.1722 47.1754 31.4403 48.6783 31.4403V29.4403ZM45.358 28.7921C44.4241 28.3654 43.7005 27.7484 43.1634 26.9348L41.4943 28.0368C42.2451 29.174 43.2639 30.0342 44.5269 30.6113L45.358 28.7921ZM43.1671 26.9405C42.6601 26.1611 42.3771 25.1587 42.3771 23.8778H40.3771C40.3771 25.4568 40.7286 26.8597 41.4906 28.0311L43.1671 26.9405ZM42.3771 23.8778C42.3771 22.7639 42.5834 21.9288 42.9297 21.3156L41.1882 20.3321C40.6254 21.3288 40.3771 22.5297 40.3771 23.8778H42.3771ZM42.9297 21.3156C43.3011 20.6579 43.802 20.1381 44.4433 19.7441L43.3962 18.04C42.4655 18.6119 41.7259 19.38 41.1882 20.3321L42.9297 21.3156ZM44.4433 19.7441C45.1339 19.3197 45.9229 18.9923 46.8185 18.7684L46.3335 16.8282C45.2593 17.0967 44.2776 17.4985 43.3962 18.04L44.4433 19.7441ZM46.825 18.7668C47.7708 18.5236 48.7505 18.3473 49.7649 18.2386L49.5518 16.25C48.445 16.3686 47.3699 16.5616 46.327 16.8298L46.825 18.7668ZM49.7615 18.239C51.0443 18.106 52.091 17.9865 52.899 17.8807L52.6393 15.8977C51.8564 16.0002 50.8293 16.1175 49.5552 16.2497L49.7615 18.239ZM52.9106 17.8792C53.7435 17.7602 54.493 17.5663 55.0361 17.2233L53.9681 15.5324C53.7915 15.6439 53.3858 15.791 52.6278 15.8993L52.9106 17.8792ZM55.0418 17.2197C55.7372 16.774 56.0561 16.0679 56.0561 15.2841H54.0561C54.0561 15.4051 54.0338 15.4586 54.0255 15.475C54.0197 15.4865 54.0084 15.5065 53.9625 15.536L55.0418 17.2197ZM56.0561 15.2841V15.1989H54.0561V15.2841H56.0561ZM56.0561 15.1989C56.0561 13.9212 55.6695 12.7989 54.7836 11.9791L53.4252 13.447C53.8082 13.8015 54.0561 14.3363 54.0561 15.1989H56.0561ZM54.7836 11.9791C53.9039 11.1651 52.7114 10.8324 51.3629 10.8324V12.8324C52.4009 12.8324 53.036 13.0868 53.4252 13.447L54.7836 11.9791ZM51.3629 10.8324C49.9663 10.8324 48.7336 11.1365 47.7691 11.8538L48.9625 13.4587C49.4752 13.0775 50.2406 12.8324 51.3629 12.8324V10.8324ZM47.7641 11.8575C46.9005 12.508 46.2722 13.3134 45.9422 14.2789L47.8348 14.9257C48.0161 14.395 48.3727 13.903 48.9674 13.455L47.7641 11.8575ZM47.0291 13.6122L42.228 12.9304L41.9468 14.9105L46.7479 15.5923L47.0291 13.6122ZM43.0489 14.1952C43.387 13.0119 43.9342 12.055 44.677 11.2961L43.2477 9.89713C42.2481 10.9185 41.5453 12.1775 41.1258 13.6457L43.0489 14.1952ZM44.6807 11.2923C45.4373 10.511 46.3679 9.91948 47.4916 9.5224L46.8252 7.63669C45.4299 8.12976 44.2299 8.88289 43.244 9.90092L44.6807 11.2923ZM47.4979 9.52016C48.6345 9.10995 49.9098 8.89773 51.3345 8.89773V6.89773C49.71 6.89773 48.2012 7.14005 46.8189 7.63893L47.4979 9.52016ZM51.3345 8.89773C52.3068 8.89773 53.276 9.01151 54.2437 9.24023L54.7037 7.29386C53.5881 7.03016 52.4645 6.89773 51.3345 6.89773V8.89773ZM54.2437 9.24023C55.1755 9.46049 56.0181 9.82223 56.7784 10.3235L57.8793 8.65377C56.9161 8.01868 55.8552 7.56603 54.7037 7.29386L54.2437 9.24023ZM56.7848 10.3277C57.4961 10.7888 58.0757 11.4216 58.5225 12.2502L60.2829 11.301C59.688 10.1977 58.8851 9.30585 57.8729 8.64956L56.7848 10.3277ZM58.5261 12.2568C58.9539 13.036 59.1982 14.0659 59.1982 15.3977H61.1982C61.1982 13.8319 60.9121 12.4469 60.2793 11.2943L58.5261 12.2568ZM59.1982 15.3977V30H61.1982V15.3977H59.1982ZM60.1982 29H55.255V31H60.1982V29ZM56.255 30V27.0028H54.255V30H56.255ZM55.255 26.0028H55.0845V28.0028H55.255V26.0028ZM54.1957 26.5446C53.9427 27.0353 53.577 27.5136 53.0812 27.9763L54.4458 29.4384C55.0864 28.8406 55.6014 28.1825 55.9733 27.4611L54.1957 26.5446ZM53.0816 27.9759C52.6345 28.3927 52.0472 28.7514 51.2936 29.0361L52.0004 30.9071C52.9514 30.5478 53.775 30.0638 54.4454 29.4389L53.0816 27.9759ZM51.2994 29.034C50.5929 29.2959 49.726 29.4403 48.6783 29.4403V31.4403C49.9033 31.4403 51.0156 31.2723 51.9947 30.9092L51.2994 29.034ZM50.0135 27.6619C51.178 27.6619 52.242 27.4316 53.1716 26.932L52.2247 25.1703C51.6391 25.4851 50.9134 25.6619 50.0135 25.6619V27.6619ZM53.1801 26.9274C54.079 26.4329 54.7976 25.7638 55.3039 24.9161L53.5868 23.8907C53.2786 24.4067 52.8325 24.836 52.2162 25.1749L53.1801 26.9274ZM55.2986 24.9249C55.812 24.0848 56.0703 23.1608 56.0703 22.1733H54.0703C54.0703 22.7956 53.912 23.3584 53.592 23.882L55.2986 24.9249ZM56.0703 22.1733V19.6023H54.0703V22.1733H56.0703ZM54.4346 18.8303C54.4461 18.8209 54.423 18.8419 54.3346 18.8815C54.2502 18.9193 54.1298 18.9638 53.9656 19.0119L54.5273 20.9313C54.9463 20.8087 55.383 20.6402 55.706 20.3742L54.4346 18.8303ZM53.9591 19.0138C53.6233 19.1145 53.2348 19.2058 52.7909 19.2857L53.1452 21.2541C53.6482 21.1635 54.1121 21.0559 54.5338 20.9294L53.9591 19.0138ZM52.7909 19.2857C52.329 19.3688 51.8721 19.4427 51.4204 19.5072L51.7032 21.4871C52.1795 21.4191 52.6601 21.3414 53.1452 21.2541L52.7909 19.2857ZM51.4204 19.5072C50.9572 19.5734 50.5561 19.63 50.2168 19.6771L50.492 21.6581C50.8345 21.6105 51.2383 21.5535 51.7032 21.4871L51.4204 19.5072ZM50.2198 19.6767C49.3886 19.7896 48.6231 19.9771 47.9309 20.2475L48.6586 22.1104C49.1785 21.9074 49.7861 21.754 50.489 21.6585L50.2198 19.6767ZM47.9309 20.2475C47.1942 20.5353 46.5647 20.9581 46.0877 21.5382L47.6325 22.8084C47.8563 22.5363 48.1831 22.2962 48.6586 22.1104L47.9309 20.2475ZM46.0947 21.5297C45.5617 22.1635 45.3345 22.9475 45.3345 23.7926H47.3345C47.3345 23.312 47.4577 23.0164 47.6254 22.8169L46.0947 21.5297ZM45.3345 23.7926C45.3345 25.0195 45.8036 26.062 46.7987 26.7573L47.9442 25.1177C47.5568 24.8471 47.3345 24.4596 47.3345 23.7926H45.3345ZM46.7987 26.7573C47.6981 27.3856 48.7938 27.6619 50.0135 27.6619V25.6619C49.0931 25.6619 48.4273 25.4553 47.9442 25.1177L46.7987 26.7573ZM70.5107 30V31H71.5107V30H70.5107ZM65.3686 30H64.3686V31H65.3686V30ZM65.3686 8.18182V7.18182H64.3686V8.18182H65.3686ZM70.2834 8.18182H71.2834V7.18182H70.2834V8.18182ZM70.2834 11.8892H69.2834V12.8892H70.2834V11.8892ZM70.5391 11.8892V12.8892H71.2093L71.464 12.2692L70.5391 11.8892ZM72.9396 8.97727L72.3949 8.13866L72.3916 8.14081L72.9396 8.97727ZM80.9794 8.86364L80.4801 9.73007L80.4833 9.73188L80.9794 8.86364ZM83.593 11.6619L82.7 12.1119L82.7028 12.1174L83.593 11.6619ZM84.5163 16.108L83.5163 16.1025V16.108H84.5163ZM84.5163 30V31H85.5163V30H84.5163ZM79.3743 30H78.3743V31H79.3743V30ZM78.2379 13.4801L77.4976 14.1524L77.5018 14.157L78.2379 13.4801ZM72.7266 12.8409L73.2163 13.7128L73.2202 13.7106L72.7266 12.8409ZM71.093 14.5312L70.2125 14.0571L70.2079 14.066L71.093 14.5312ZM69.5107 17.2159V30H71.5107V17.2159H69.5107ZM70.5107 29H65.3686V31H70.5107V29ZM66.3686 30V8.18182H64.3686V30H66.3686ZM65.3686 9.18182H70.2834V7.18182H65.3686V9.18182ZM69.2834 8.18182V11.8892H71.2834V8.18182H69.2834ZM70.2834 12.8892H70.5391V10.8892H70.2834V12.8892ZM71.464 12.2692C71.8897 11.2332 72.559 10.4221 73.4877 9.81373L72.3916 8.14081C71.1233 8.97179 70.1922 10.102 69.6141 11.5092L71.464 12.2692ZM73.4844 9.81588C74.396 9.22369 75.5641 8.89773 77.0447 8.89773V6.89773C75.2678 6.89773 73.6991 7.29146 72.3949 8.13867L73.4844 9.81588ZM77.0447 8.89773C78.4048 8.89773 79.5383 9.18733 80.4801 9.73007L81.4787 7.9972C80.1857 7.25207 78.6961 6.89773 77.0447 6.89773V8.89773ZM80.4833 9.73188C81.4302 10.273 82.1678 11.0557 82.7 12.1119L84.4861 11.212C83.7872 9.82495 82.7824 8.74215 81.4755 7.99539L80.4833 9.73188ZM82.7028 12.1174C83.2378 13.1631 83.5252 14.4782 83.5163 16.1025L85.5163 16.1134C85.5264 14.2529 85.1983 12.604 84.4833 11.2065L82.7028 12.1174ZM83.5163 16.108V30H85.5163V16.108H83.5163ZM84.5163 29H79.3743V31H84.5163V29ZM80.3743 30V16.9034H78.3743V30H80.3743ZM80.3743 16.9034C80.3743 15.2725 79.9477 13.8621 78.974 12.8032L77.5018 14.157C78.0433 14.7459 78.3743 15.6177 78.3743 16.9034H80.3743ZM78.9783 12.8079C78.0044 11.7354 76.6761 11.2443 75.1271 11.2443V13.2443C76.2297 13.2443 76.9752 13.5771 77.4976 14.1524L78.9783 12.8079ZM75.1271 11.2443C74.0751 11.2443 73.1011 11.4785 72.233 11.9712L73.2202 13.7106C73.7535 13.4079 74.38 13.2443 75.1271 13.2443V11.2443ZM72.2369 11.969C71.3705 12.4556 70.6947 13.1617 70.2126 14.0572L71.9735 15.0053C72.2868 14.4235 72.7001 14.0027 73.2163 13.7128L72.2369 11.969ZM70.2079 14.066C69.7271 14.9806 69.5107 16.0438 69.5107 17.2159H71.5107C71.5107 16.2857 71.6824 15.5592 71.9782 14.9965L70.2079 14.066ZM93.2379 29.0625L92.6927 29.9008L92.6927 29.9008L93.2379 29.0625ZM90.0277 25.2273L90.9331 24.8027L90.9331 24.8027L90.0277 25.2273ZM90.0419 12.983L89.1405 12.5501L89.1394 12.5522L90.0419 12.983ZM93.2947 9.19034L93.8248 10.0383L93.829 10.0357L93.2947 9.19034ZM101.008 8.55114L100.54 9.43521L100.548 9.43935L101.008 8.55114ZM102.968 10.0994L102.186 10.7227L102.191 10.7286L102.968 10.0994ZM104.09 11.7898L103.196 12.237L103.472 12.7898H104.09V11.7898ZM104.303 11.7898V12.7898H105.303V11.7898H104.303ZM104.303 0.90909V-0.09091H103.303V0.90909H104.303ZM109.46 0.90909H110.46V-0.09091H109.46V0.90909ZM109.46 30V31H110.46V30H109.46ZM104.403 30H103.403V31H104.403V30ZM104.403 26.5625H105.403V25.5625H104.403V26.5625ZM104.09 26.5625V25.5625H103.472L103.196 26.1153L104.09 26.5625ZM102.94 28.2528L103.7 28.9026L103.705 28.8966L102.94 28.2528ZM100.951 29.7585L101.402 30.6509L101.402 30.6509L100.951 29.7585ZM102.059 25.2841L102.667 26.0782L102.673 26.0734L102.059 25.2841ZM103.806 22.7983L102.87 22.4472L102.87 22.4472L103.806 22.7983ZM103.806 15.4119L102.869 15.7612L102.872 15.7686L103.806 15.4119ZM102.073 12.983L101.467 13.7782L101.472 13.7818L102.073 12.983ZM96.4055 13.0114L95.7916 12.222L95.7916 12.222L96.4055 13.0114ZM94.6726 15.483L93.7345 15.1365L93.7345 15.1365L94.6726 15.483ZM94.6726 22.7415L93.7325 23.0826L93.7363 23.0926L94.6726 22.7415ZM96.4197 25.2557L95.7938 26.0357L95.8045 26.044L96.4197 25.2557ZM97.8402 29.3835C96.3073 29.3835 94.9649 28.9928 93.7831 28.2242L92.6927 29.9008C94.2192 30.8936 95.945 31.3835 97.8402 31.3835V29.3835ZM93.7831 28.2242C92.607 27.4593 91.6517 26.3352 90.9331 24.8027L89.1223 25.6518C89.9756 27.4716 91.1605 28.9043 92.6927 29.9008L93.7831 28.2242ZM90.9331 24.8027C90.2249 23.2925 89.8487 21.4099 89.8487 19.1193H87.8487C87.8487 21.6204 88.2585 23.8098 89.1223 25.6518L90.9331 24.8027ZM89.8487 19.1193C89.8487 16.7995 90.2299 14.9106 90.9444 13.4137L89.1394 12.5522C88.263 14.3886 87.8487 16.5907 87.8487 19.1193H89.8487ZM90.9433 13.4159C91.6794 11.8832 92.6456 10.7753 93.8247 10.0383L92.7647 8.34234C91.2166 9.30991 90.0143 10.7304 89.1405 12.5501L90.9433 13.4159ZM93.829 10.0357C95.0263 9.27905 96.3596 8.89773 97.8544 8.89773V6.89773C95.9969 6.89773 94.2905 7.37815 92.7605 8.34499L93.829 10.0357ZM97.8544 8.89773C99.0275 8.89773 99.9041 9.09872 100.54 9.43517L101.475 7.6671C100.464 7.13234 99.2382 6.89773 97.8544 6.89773V8.89773ZM100.548 9.43935C101.271 9.81336 101.806 10.2461 102.186 10.7226L103.75 9.47623C103.164 8.74063 102.392 8.14119 101.467 7.66292L100.548 9.43935ZM102.191 10.7286C102.641 11.2845 102.971 11.7871 103.196 12.237L104.985 11.3426C104.679 10.7318 104.261 10.1076 103.745 9.47023L102.191 10.7286ZM104.09 12.7898H104.303V10.7898H104.09V12.7898ZM105.303 11.7898V0.90909H103.303V11.7898H105.303ZM104.303 1.90909H109.46V-0.09091H104.303V1.90909ZM108.46 0.90909V30H110.46V0.90909H108.46ZM109.46 29H104.403V31H109.46V29ZM105.403 30V26.5625H103.403V30H105.403ZM104.403 25.5625H104.09V27.5625H104.403V25.5625ZM103.196 26.1153C102.975 26.5572 102.641 27.055 102.174 27.6091L103.705 28.8966C104.243 28.2575 104.675 27.6284 104.985 27.0097L103.196 26.1153ZM102.18 27.6031C101.779 28.0721 101.228 28.4977 100.5 28.8662L101.402 30.6509C102.322 30.186 103.097 29.6078 103.7 28.9026L102.18 27.6031ZM100.5 28.8662C99.8563 29.1916 98.9862 29.3835 97.8402 29.3835V31.3835C99.1942 31.3835 100.398 31.1588 101.402 30.6509L100.5 28.8662ZM99.2749 27.1648C100.554 27.1648 101.703 26.8157 102.667 26.0782L101.451 24.49C100.881 24.9267 100.174 25.1648 99.2749 25.1648V27.1648ZM102.673 26.0734C103.609 25.3457 104.291 24.354 104.742 23.1494L102.87 22.4472C102.526 23.3638 102.043 24.0293 101.445 24.4947L102.673 26.0734ZM104.742 23.1494C105.191 21.9527 105.403 20.5935 105.403 19.0909H103.403C103.403 20.4103 103.216 21.5226 102.87 22.4472L104.742 23.1494ZM105.403 19.0909C105.403 17.589 105.191 16.2366 104.74 15.0552L102.872 15.7686C103.216 16.6706 103.403 17.7708 103.403 19.0909H105.403ZM104.743 15.0627C104.299 13.871 103.617 12.8938 102.675 12.1841L101.472 13.7818C102.063 14.2274 102.537 14.8695 102.869 15.7612L104.743 15.0627ZM102.679 12.1878C101.72 11.4564 100.565 11.1165 99.2749 11.1165V13.1165C100.201 13.1165 100.911 13.3542 101.467 13.7782L102.679 12.1878ZM99.2749 11.1165C97.948 11.1165 96.7643 11.4655 95.7916 12.222L97.0195 13.8007C97.5809 13.364 98.31 13.1165 99.2749 13.1165V11.1165ZM95.7916 12.222C94.8559 12.9498 94.1773 13.9377 93.7345 15.1365L95.6106 15.8294C95.9444 14.9259 96.4211 14.2661 97.0195 13.8007L95.7916 12.222ZM93.7345 15.1365C93.2978 16.319 93.0902 17.6424 93.0902 19.0909H95.0902C95.0902 17.8311 95.2709 16.7492 95.6106 15.8294L93.7345 15.1365ZM93.0902 19.0909C93.0902 20.5485 93.2976 21.8839 93.7325 23.0826L95.6126 22.4004C95.271 21.4589 95.0902 20.3606 95.0902 19.0909H93.0902ZM93.7363 23.0926C94.1873 24.2955 94.8666 25.2915 95.7939 26.0356L97.0456 24.4758C96.4388 23.9888 95.9533 23.3087 95.6089 22.3904L93.7363 23.0926ZM95.8045 26.044C96.7816 26.8066 97.9587 27.1648 99.2749 27.1648V25.1648C98.3372 25.1648 97.611 24.9169 97.035 24.4674L95.8045 26.044ZM115.166 30H114.166V31H115.166V30ZM115.166 0.90909V-0.09091H114.166V0.90909H115.166ZM120.436 0.90909H121.436V-0.09091H120.436V0.90909ZM120.436 25.5824H119.436V26.5824H120.436V25.5824ZM133.249 25.5824H134.249V24.5824H133.249V25.5824ZM133.249 30V31H134.249V30H133.249ZM116.166 30V0.90909H114.166V30H116.166ZM115.166 1.90909H120.436V-0.09091H115.166V1.90909ZM119.436 0.90909V25.5824H121.436V0.90909H119.436ZM120.436 26.5824H133.249V24.5824H120.436V26.5824ZM132.249 25.5824V30H134.249V25.5824H132.249ZM133.249 29H115.166V31H133.249V29ZM141.572 29.0199L141.058 29.8774L141.058 29.8774L141.572 29.0199ZM137.936 25.0852L137.044 25.5365L137.046 25.5404L137.936 25.0852ZM137.936 13.2528L137.045 12.7997L137.043 12.8036L137.936 13.2528ZM141.572 9.30398L142.087 10.1615L142.087 10.1615L141.572 9.30398ZM152.652 9.30398L152.137 10.1615L152.137 10.1615L152.652 9.30398ZM156.274 13.2528L155.381 13.7021L155.383 13.706L156.274 13.2528ZM156.274 25.0852L155.384 24.63L155.382 24.634L156.274 25.0852ZM152.652 29.0199L152.137 28.1624L152.137 28.1624L152.652 29.0199ZM150.038 25.3551L150.671 26.1295L150.677 26.1249L150.038 25.3551ZM151.771 22.7699L150.83 22.4314L150.828 22.4388L151.771 22.7699ZM151.771 15.5398L150.827 15.8683L150.83 15.8782L151.771 15.5398ZM150.038 12.9403L150.677 12.1706L150.677 12.1706L150.038 12.9403ZM144.186 12.9403L143.552 12.1668L143.548 12.1706L144.186 12.9403ZM142.439 15.5398L141.497 15.204L141.495 15.2087L142.439 15.5398ZM142.439 22.7699L141.495 23.101L141.498 23.1083L142.439 22.7699ZM144.186 25.3551L143.548 26.1249L143.558 26.1332L144.186 25.3551ZM147.112 29.4261C145.132 29.4261 143.469 28.9919 142.087 28.1624L141.058 29.8774C142.801 30.9229 144.831 31.4261 147.112 31.4261V29.4261ZM142.087 28.1624C140.691 27.325 139.607 26.1558 138.826 24.63L137.046 25.5404C137.989 27.3858 139.329 28.8397 141.058 29.8774L142.087 28.1624ZM138.828 24.634C138.059 23.1129 137.658 21.3032 137.658 19.1761H135.658C135.658 21.5566 136.108 23.6864 137.044 25.5364L138.828 24.634ZM137.658 19.1761C137.658 17.0492 138.059 15.2339 138.83 13.702L137.043 12.8036C136.108 14.662 135.658 16.7955 135.658 19.1761H137.658ZM138.827 13.706C139.608 12.1708 140.693 10.998 142.087 10.1615L141.058 8.44648C139.327 9.48499 137.988 10.9447 137.045 12.7997L138.827 13.706ZM142.087 10.1615C143.469 9.332 145.132 8.89773 147.112 8.89773V6.89773C144.831 6.89773 142.801 7.40095 141.058 8.44648L142.087 10.1615ZM147.112 8.89773C149.093 8.89773 150.755 9.332 152.137 10.1615L153.166 8.44648C151.424 7.40095 149.393 6.89773 147.112 6.89773V8.89773ZM152.137 10.1615C153.531 10.9974 154.61 12.1689 155.381 13.702L157.168 12.8036C156.234 10.9467 154.898 9.48558 153.166 8.44648L152.137 10.1615ZM155.383 13.706C156.161 15.2369 156.567 17.0508 156.567 19.1761H158.567C158.567 16.7939 158.111 14.6589 157.166 12.7997L155.383 13.706ZM156.567 19.1761C156.567 21.3016 156.161 23.1098 155.384 24.63L157.165 25.5404C158.111 23.6894 158.567 21.5582 158.567 19.1761H156.567ZM155.382 24.634C154.611 26.1577 153.532 27.3256 152.137 28.1624L153.166 29.8774C154.897 28.8391 156.232 27.3839 157.167 25.5364L155.382 24.634ZM152.137 28.1624C150.755 28.9919 149.093 29.4261 147.112 29.4261V31.4261C149.393 31.4261 151.424 30.9229 153.166 29.8774L152.137 28.1624ZM147.141 27.3068C148.49 27.3068 149.689 26.9316 150.671 26.1295L149.406 24.5807C148.834 25.0475 148.102 25.3068 147.141 25.3068V27.3068ZM150.677 26.1249C151.611 25.3502 152.284 24.3283 152.715 23.101L150.828 22.4388C150.501 23.3706 150.019 24.0721 149.4 24.5854L150.677 26.1249ZM152.712 23.1083C153.145 21.9048 153.354 20.5854 153.354 19.1619H151.354C151.354 20.39 151.174 21.4759 150.83 22.4315L152.712 23.1083ZM153.354 19.1619C153.354 17.7299 153.145 16.4056 152.712 15.2013L150.83 15.8782C151.174 16.833 151.354 17.9235 151.354 19.1619H153.354ZM152.716 15.2113C152.286 13.9751 151.613 12.9468 150.677 12.1706L149.4 13.7101C150.017 14.2217 150.499 14.9264 150.827 15.8683L152.716 15.2113ZM150.677 12.1706C149.695 11.3565 148.493 10.9744 147.141 10.9744V12.9744C148.099 12.9744 148.829 13.2363 149.4 13.7101L150.677 12.1706ZM147.141 10.9744C145.766 10.9744 144.546 11.3529 143.552 12.1668L144.82 13.7139C145.398 13.2399 146.148 12.9744 147.141 12.9744V10.9744ZM143.548 12.1706C142.614 12.9452 141.937 13.9708 141.497 15.204L143.381 15.8756C143.718 14.9307 144.205 14.2234 144.824 13.7101L143.548 12.1706ZM141.495 15.2087C141.074 16.4107 140.871 17.7324 140.871 19.1619H142.871C142.871 17.921 143.047 16.8279 143.383 15.8709L141.495 15.2087ZM140.871 19.1619C140.871 20.5829 141.074 21.8996 141.495 23.101L143.383 22.4388C143.046 21.4811 142.871 20.3925 142.871 19.1619H140.871ZM141.498 23.1083C141.938 24.3326 142.616 25.3518 143.548 26.1249L144.824 24.5854C144.204 24.0705 143.716 23.3663 143.38 22.4315L141.498 23.1083ZM143.558 26.1332C144.551 26.9351 145.769 27.3068 147.141 27.3068V25.3068C146.144 25.3068 145.393 25.0441 144.814 24.577L143.558 26.1332ZM166.661 37.8835L167.015 36.9483L167.009 36.9461L166.661 37.8835ZM163.465 35.8949L164.184 35.2001L164.184 35.2001L163.465 35.8949ZM161.789 33.125L161.554 32.1531L160.52 32.4036L160.833 33.4197L161.789 33.125ZM166.42 32.0028L167.318 31.5636L166.965 30.8417L166.184 31.031L166.42 32.0028ZM167.329 33.267L168.06 32.5847L168.052 32.5766L167.329 33.267ZM168.934 34.3182L169.319 33.3951L169.312 33.3924L168.934 34.3182ZM175.127 33.679L174.536 32.8723L174.531 32.8761L175.127 33.679ZM176.562 26.0795H177.562V25.0795H176.562V26.0795ZM176.306 26.0795V25.0795H175.688L175.412 25.6323L176.306 26.0795ZM175.141 27.7131L174.404 27.0379L174.397 27.0448L175.141 27.7131ZM173.138 29.1193L172.725 28.2089L172.721 28.2107L173.138 29.1193ZM165.468 28.5085L164.962 29.3708L164.969 29.3749L165.468 28.5085ZM162.229 24.9574L161.336 25.4067L161.339 25.4132L162.229 24.9574ZM162.229 12.9545L161.33 12.5176L161.329 12.5198L162.229 12.9545ZM165.482 9.19034L166.012 10.0383L166.016 10.0357L165.482 9.19034ZM173.195 8.55114L172.728 9.43525L172.74 9.44148L173.195 8.55114ZM175.184 10.0994L174.408 10.73L174.413 10.736L175.184 10.0994ZM176.306 11.7898L175.405 12.2241L175.678 12.7898H176.306V11.7898ZM176.59 11.7898V12.7898H177.59V11.7898H176.59ZM176.59 8.18182V7.18182H175.59V8.18182H176.59ZM181.661 8.18182H182.661V7.18182H181.661V8.18182ZM180.326 34.9858L181.134 35.5747L181.134 35.5747L180.326 34.9858ZM176.675 37.7273L177.041 38.6581L177.041 38.6581L176.675 37.7273ZM174.246 24.858L173.678 24.0354L173.678 24.0354L174.246 24.858ZM175.994 15.3835L175.058 15.7356L175.06 15.7431L175.994 15.3835ZM174.261 12.983L173.654 13.7782L173.665 13.7865L174.261 12.983ZM168.593 13.0114L167.979 12.222L167.979 12.222L168.593 13.0114ZM166.86 15.4688L167.796 15.8208L167.797 15.818L166.86 15.4688ZM166.86 22.5L165.927 22.8608L165.932 22.8714L166.86 22.5ZM168.607 24.8295L168.018 25.6379L168.03 25.646L168.607 24.8295ZM171.42 37.6364C169.659 37.6364 168.199 37.3966 167.015 36.9483L166.307 38.8187C167.775 39.3742 169.487 39.6364 171.42 39.6364V37.6364ZM167.009 36.9461C165.794 36.4945 164.865 35.9047 164.184 35.2001L162.746 36.5896C163.675 37.5517 164.877 38.2877 166.313 38.8209L167.009 36.9461ZM164.184 35.2001C163.478 34.4691 163.007 33.68 162.745 32.8303L160.833 33.4197C161.196 34.5966 161.842 35.654 162.746 36.5896L164.184 35.2001ZM162.025 34.0969L166.655 32.9747L166.184 31.031L161.554 32.1531L162.025 34.0969ZM165.521 32.4421C165.783 32.9777 166.152 33.4819 166.605 33.9575L168.052 32.5766C167.711 32.2188 167.473 31.8802 167.318 31.5636L165.521 32.4421ZM166.598 33.9494C167.115 34.5039 167.782 34.9277 168.556 35.2439L169.312 33.3924C168.742 33.1594 168.338 32.8825 168.06 32.5847L166.598 33.9494ZM168.549 35.2413C169.391 35.592 170.39 35.7443 171.505 35.7443V33.7443C170.556 33.7443 169.84 33.6125 169.319 33.3951L168.549 35.2413ZM171.505 35.7443C173.129 35.7443 174.559 35.3466 175.723 34.4818L174.531 32.8761C173.783 33.4318 172.798 33.7443 171.505 33.7443V35.7443ZM175.718 34.4856C177.017 33.5339 177.562 32.0183 177.562 30.2131H175.562C175.562 31.6276 175.15 32.4225 174.536 32.8723L175.718 34.4856ZM177.562 30.2131V26.0795H175.562V30.2131H177.562ZM176.562 25.0795H176.306V27.0795H176.562V25.0795ZM175.412 25.6323C175.198 26.0605 174.869 26.5296 174.404 27.0379L175.879 28.3882C176.437 27.7791 176.884 27.1592 177.201 26.5268L175.412 25.6323ZM174.397 27.0448C174.006 27.481 173.459 27.875 172.725 28.209L173.552 30.0297C174.484 29.606 175.273 29.0625 175.885 28.3813L174.397 27.0448ZM172.721 28.2107C172.068 28.511 171.185 28.6875 170.028 28.6875V30.6875C171.371 30.6875 172.562 30.4852 173.556 30.0279L172.721 28.2107ZM170.028 28.6875C168.515 28.6875 167.169 28.3349 165.967 27.6421L164.969 29.3749C166.494 30.2541 168.188 30.6875 170.028 30.6875V28.6875ZM165.975 27.6463C164.804 26.9587 163.849 25.9261 163.119 24.5016L161.339 25.4132C162.22 27.1326 163.424 28.4674 164.962 29.3708L165.975 27.6463ZM163.123 24.508C162.417 23.1054 162.036 21.2918 162.036 19.0199H160.036C160.036 21.5018 160.451 23.6465 161.336 25.4067L163.123 24.508ZM162.036 19.0199C162.036 16.7299 162.417 14.8662 163.13 13.3893L161.329 12.5198C160.451 14.3383 160.036 16.5182 160.036 19.0199H162.036ZM163.129 13.3914C163.864 11.8781 164.83 10.7772 166.012 10.0383L164.952 8.34234C163.407 9.30807 162.205 10.7166 161.33 12.5176L163.129 13.3914ZM166.016 10.0357C167.214 9.27905 168.547 8.89773 170.042 8.89773V6.89773C168.184 6.89773 166.478 7.37815 164.948 8.34499L166.016 10.0357ZM170.042 8.89773C171.215 8.89773 172.092 9.09872 172.728 9.43517L173.663 7.6671C172.651 7.13234 171.426 6.89773 170.042 6.89773V8.89773ZM172.74 9.44148C173.474 9.81664 174.019 10.2512 174.408 10.73L175.96 9.46884C175.364 8.73559 174.584 8.1379 173.651 7.66079L172.74 9.44148ZM174.413 10.736C174.869 11.2888 175.193 11.7847 175.405 12.2241L177.207 11.3555C176.907 10.7343 176.484 10.1033 175.955 9.46287L174.413 10.736ZM176.306 12.7898H176.59V10.7898H176.306V12.7898ZM177.59 11.7898V8.18182H175.59V11.7898H177.59ZM176.59 9.18182H181.661V7.18182H176.59V9.18182ZM180.661 8.18182V30.3551H182.661V8.18182H180.661ZM180.661 30.3551C180.661 32.0593 180.257 33.383 179.518 34.3969L181.134 35.5747C182.176 34.1454 182.661 32.3819 182.661 30.3551H180.661ZM179.518 34.3969C178.75 35.4499 177.694 36.2529 176.31 36.7965L177.041 38.6581C178.744 37.9895 180.121 36.9649 181.134 35.5747L179.518 34.3969ZM176.31 36.7965C174.902 37.3493 173.277 37.6364 171.42 37.6364V39.6364C173.483 39.6364 175.362 39.3174 177.041 38.6581L176.31 36.7965ZM171.462 26.6534C172.72 26.6534 173.854 26.3448 174.815 25.6805L173.678 24.0354C173.105 24.4317 172.383 24.6534 171.462 24.6534V26.6534ZM174.815 25.6805C175.767 25.0225 176.463 24.0914 176.922 22.9424L175.065 22.1996C174.729 23.0393 174.26 23.6328 173.678 24.0354L174.815 25.6805ZM176.922 22.9424C177.379 21.8004 177.59 20.4744 177.59 18.9915H175.59C175.59 20.2926 175.404 21.353 175.065 22.1996L176.922 22.9424ZM177.59 18.9915C177.59 17.524 177.378 16.1949 176.927 15.024L175.06 15.7431C175.405 16.6366 175.59 17.7127 175.59 18.9915H177.59ZM176.93 15.0315C176.484 13.8477 175.8 12.8791 174.856 12.1794L173.665 13.7865C174.255 14.2232 174.726 14.8549 175.058 15.7356L176.93 15.0315ZM174.867 12.1878C173.908 11.4564 172.752 11.1165 171.462 11.1165V13.1165C172.388 13.1165 173.098 13.3542 173.654 13.7782L174.867 12.1878ZM171.462 11.1165C170.136 11.1165 168.952 11.4655 167.979 12.222L169.207 13.8007C169.768 13.364 170.498 13.1165 171.462 13.1165V11.1165ZM167.979 12.222C167.045 12.9482 166.367 13.9296 165.923 15.1195L167.797 15.818C168.13 14.9246 168.607 14.2677 169.207 13.8007L167.979 12.222ZM165.924 15.1167C165.486 16.2809 165.278 17.5776 165.278 18.9915H167.278C167.278 17.7727 167.457 16.721 167.796 15.8208L165.924 15.1167ZM165.278 18.9915C165.278 20.4214 165.485 21.7179 165.927 22.8607L167.793 22.1393C167.458 21.2745 167.278 20.232 167.278 18.9915H165.278ZM165.932 22.8714C166.39 24.0173 167.08 24.9546 168.018 25.6378L169.196 24.0212C168.6 23.5871 168.126 22.9713 167.789 22.1286L165.932 22.8714ZM168.03 25.646C169.005 26.3354 170.168 26.6534 171.462 26.6534V24.6534C170.503 24.6534 169.763 24.4221 169.185 24.0131L168.03 25.646ZM190.908 29.0199L190.394 29.8774L190.394 29.8774L190.908 29.0199ZM187.272 25.0852L186.38 25.5365L186.382 25.5404L187.272 25.0852ZM187.272 13.2528L186.381 12.7997L186.379 12.8036L187.272 13.2528ZM190.908 9.30398L191.423 10.1615L191.423 10.1615L190.908 9.30398ZM201.988 9.30398L201.473 10.1615L201.473 10.1615L201.988 9.30398ZM205.61 13.2528L204.717 13.7021L204.719 13.706L205.61 13.2528ZM205.61 25.0852L204.72 24.63L204.718 24.634L205.61 25.0852ZM201.988 29.0199L201.473 28.1624L201.473 28.1624L201.988 29.0199ZM199.374 25.3551L200.007 26.1295L200.013 26.1249L199.374 25.3551ZM201.107 22.7699L200.166 22.4314L200.164 22.4388L201.107 22.7699ZM201.107 15.5398L200.163 15.8683L200.166 15.8782L201.107 15.5398ZM199.374 12.9403L200.013 12.1706L200.013 12.1706L199.374 12.9403ZM193.522 12.9403L192.888 12.1668L192.884 12.1706L193.522 12.9403ZM191.775 15.5398L190.833 15.204L190.831 15.2087L191.775 15.5398ZM191.775 22.7699L190.831 23.101L190.834 23.1083L191.775 22.7699ZM193.522 25.3551L192.884 26.1249L192.894 26.1332L193.522 25.3551ZM196.448 29.4261C194.468 29.4261 192.805 28.9919 191.423 28.1624L190.394 29.8774C192.136 30.9229 194.167 31.4261 196.448 31.4261V29.4261ZM191.423 28.1624C190.027 27.325 188.942 26.1558 188.162 24.63L186.382 25.5404C187.325 27.3858 188.664 28.8397 190.394 29.8774L191.423 28.1624ZM188.164 24.634C187.395 23.1129 186.994 21.3032 186.994 19.1761H184.994C184.994 21.5566 185.444 23.6864 186.38 25.5364L188.164 24.634ZM186.994 19.1761C186.994 17.0492 187.395 15.2339 188.165 13.702L186.379 12.8036C185.444 14.662 184.994 16.7955 184.994 19.1761H186.994ZM188.163 13.706C188.944 12.1708 190.029 10.998 191.423 10.1615L190.394 8.44648C188.663 9.48499 187.324 10.9447 186.381 12.7997L188.163 13.706ZM191.423 10.1615C192.805 9.332 194.468 8.89773 196.448 8.89773V6.89773C194.167 6.89773 192.136 7.40095 190.394 8.44648L191.423 10.1615ZM196.448 8.89773C198.429 8.89773 200.091 9.332 201.473 10.1615L202.502 8.44648C200.76 7.40095 198.729 6.89773 196.448 6.89773V8.89773ZM201.473 10.1615C202.867 10.9974 203.946 12.1689 204.717 13.702L206.504 12.8036C205.57 10.9467 204.234 9.48558 202.502 8.44648L201.473 10.1615ZM204.719 13.706C205.497 15.2369 205.903 17.0508 205.903 19.1761H207.903C207.903 16.7939 207.447 14.6589 206.502 12.7997L204.719 13.706ZM205.903 19.1761C205.903 21.3016 205.497 23.1098 204.72 24.63L206.5 25.5404C207.447 23.6894 207.903 21.5582 207.903 19.1761H205.903ZM204.718 24.634C203.947 26.1577 202.868 27.3256 201.473 28.1624L202.502 29.8774C204.233 28.8391 205.568 27.3839 206.502 25.5364L204.718 24.634ZM201.473 28.1624C200.091 28.9919 198.429 29.4261 196.448 29.4261V31.4261C198.729 31.4261 200.76 30.9229 202.502 29.8774L201.473 28.1624ZM196.477 27.3068C197.826 27.3068 199.025 26.9316 200.007 26.1295L198.742 24.5807C198.17 25.0475 197.438 25.3068 196.477 25.3068V27.3068ZM200.013 26.1249C200.947 25.3502 201.62 24.3283 202.051 23.101L200.164 22.4388C199.837 23.3706 199.355 24.0721 198.736 24.5854L200.013 26.1249ZM202.048 23.1083C202.481 21.9048 202.69 20.5854 202.69 19.1619H200.69C200.69 20.39 200.51 21.4759 200.166 22.4315L202.048 23.1083ZM202.69 19.1619C202.69 17.7299 202.481 16.4056 202.048 15.2013L200.166 15.8782C200.51 16.833 200.69 17.9235 200.69 19.1619H202.69ZM202.052 15.2113C201.622 13.9751 200.949 12.9468 200.013 12.1706L198.736 13.7101C199.353 14.2217 199.835 14.9264 200.163 15.8683L202.052 15.2113ZM200.013 12.1706C199.031 11.3565 197.829 10.9744 196.477 10.9744V12.9744C197.435 12.9744 198.165 13.2363 198.736 13.7101L200.013 12.1706ZM196.477 10.9744C195.102 10.9744 193.882 11.3529 192.888 12.1668L194.156 13.7139C194.734 13.2399 195.484 12.9744 196.477 12.9744V10.9744ZM192.884 12.1706C191.95 12.9452 191.273 13.9708 190.833 15.204L192.717 15.8756C193.054 14.9307 193.541 14.2234 194.16 13.7101L192.884 12.1706ZM190.831 15.2087C190.409 16.4107 190.207 17.7324 190.207 19.1619H192.207C192.207 17.921 192.383 16.8279 192.718 15.8709L190.831 15.2087ZM190.207 19.1619C190.207 20.5829 190.41 21.8996 190.831 23.101L192.718 22.4388C192.382 21.4811 192.207 20.3925 192.207 19.1619H190.207ZM190.834 23.1083C191.274 24.3326 191.951 25.3518 192.884 26.1249L194.16 24.5854C193.54 24.0705 193.052 23.3663 192.716 22.4315L190.834 23.1083ZM192.894 26.1332C193.887 26.9351 195.105 27.3068 196.477 27.3068V25.3068C195.48 25.3068 194.729 25.0441 194.15 24.577L192.894 26.1332Z" fill="black"/>
</svg>
