<svg width="89" height="41" viewBox="0 0 89 41" fill="none" xmlns="http://www.w3.org/2000/svg">
<g filter="url(#filter0_d_2_4)">
<path d="M15.5011 25.8086C13.5331 25.8201 11.7062 25.3387 10.0205 24.3645C8.35869 23.3662 7.03052 21.9699 6.03604 20.1757C5.06542 18.3573 4.57326 16.2722 4.55954 13.9202C4.54765 11.8802 5.01602 9.88546 5.96467 7.9359C6.91318 5.96233 8.24778 4.34652 9.96847 3.08847C11.7132 1.83027 13.7015 1.19467 15.9335 1.18165C17.9974 1.16962 19.7399 1.59146 21.1609 2.44719C22.6058 3.27878 23.6914 4.24447 24.4179 5.34425C25.1443 6.44403 25.5094 7.31792 25.5132 7.96591C25.515 8.2779 25.4085 8.53053 25.1936 8.72378C25.0026 8.8929 24.7391 8.97844 24.4031 8.9804C24.1631 8.9818 23.9347 8.92313 23.718 8.80439C23.5252 8.66151 23.3801 8.47035 23.2827 8.23092C22.7709 6.88988 21.9123 5.76687 20.707 4.86188C19.5256 3.93275 17.9389 3.474 15.9469 3.48561C13.8829 3.49765 12.1705 4.10764 10.8095 5.3156C9.44849 6.52356 8.44877 7.94541 7.81029 9.58116C7.19568 11.1928 6.89208 12.6346 6.8995 13.9065C6.91098 15.8745 7.30498 17.5882 8.0815 19.0477C8.88188 20.4831 9.93237 21.593 11.233 22.3774C12.5574 23.1377 13.9756 23.5134 15.4876 23.5046C17.4556 23.4932 19.1443 22.9313 20.5539 21.8191C21.9873 20.6827 22.9504 19.153 23.4432 17.2301L22.5072 17.2356C21.2832 17.2427 20.0481 17.4059 18.802 17.7252C18.3225 17.824 18.0468 17.8736 17.9748 17.874C17.6628 17.8759 17.3982 17.7694 17.181 17.5547C16.9637 17.3399 16.8541 17.0646 16.8521 16.7286C16.8507 16.4886 16.9095 16.2722 17.0283 16.0795C17.1711 15.8627 17.3742 15.7055 17.6376 15.608C18.1645 15.4129 18.8956 15.2526 19.8308 15.1272C20.7661 15.0017 21.6898 14.9363 22.6017 14.931C24.1857 14.9218 25.5069 15.1181 26.5652 15.5199C27.0461 15.6611 27.2882 16.0197 27.2915 16.5957C27.2933 16.9077 27.1869 17.1723 26.9722 17.3896C26.7813 17.5827 26.5419 17.6921 26.2541 17.7178C26.0861 17.7187 25.9059 17.6838 25.7134 17.6129C25.1513 19.9922 23.9747 21.9551 22.1837 23.5016C20.3926 25.0241 18.165 25.7931 15.5011 25.8086ZM43.3236 25.8984C42.9636 25.9005 42.6869 25.7821 42.4935 25.5432C42.3002 25.3283 42.2026 25.0529 42.2007 24.7169L42.1948 23.7089C41.5502 24.2887 40.7729 24.7612 39.863 25.1265C38.953 25.4678 38.042 25.6411 37.13 25.6465C35.834 25.654 34.6682 25.3368 33.6324 24.6948C32.5966 24.0529 31.7753 23.1456 31.1685 21.9732C30.5855 20.7765 30.2896 19.4222 30.2808 17.9103C30.2713 16.2783 30.5979 14.6804 31.2608 13.1165C31.9476 11.5284 32.936 10.2267 34.2261 9.21112C35.5402 8.19544 37.0853 7.68242 38.8612 7.67206C39.9652 7.66563 40.938 7.80396 41.7797 8.08705C42.6214 8.37015 43.4754 8.71318 44.3417 9.11613L44.4326 24.7039C44.4346 25.0399 44.3282 25.3165 44.1135 25.5337C43.8989 25.775 43.6356 25.8965 43.3236 25.8984ZM37.1176 23.5225C38.0536 23.517 38.9883 23.2956 39.9218 22.8581C40.8551 22.3967 41.5723 21.9125 42.0734 21.4056L42.1538 10.4969C41.7688 10.3312 41.2639 10.1781 40.639 10.0377C40.0381 9.87324 39.4736 9.79253 38.9456 9.79561C37.7696 9.80247 36.6917 10.1568 35.7117 10.8585C34.7318 11.5602 33.9574 12.5247 33.3886 13.7521C32.8436 14.9553 32.5755 16.3129 32.5843 17.8248C32.5945 19.5768 33.0226 20.9663 33.8686 21.9934C34.7147 23.0205 35.7976 23.5302 37.1176 23.5225ZM51.1923 25.5645C50.9043 25.5661 50.6396 25.4597 50.3984 25.2451C50.1571 25.0305 50.0357 24.7912 50.0342 24.5272L49.9418 8.68747C49.94 8.37547 50.0465 8.12285 50.2614 7.92959C50.5002 7.7122 50.7755 7.60259 51.0875 7.60077C51.4235 7.59881 51.7001 7.7052 51.9174 7.91993C52.1345 8.11067 52.244 8.36204 52.2458 8.67403L52.2636 11.734C52.9288 10.5541 53.7509 9.55327 54.7302 8.73155C55.7333 7.88568 56.9068 7.45883 58.2508 7.451C59.3067 7.44484 60.0645 7.74042 60.524 8.33776C61.0073 8.91095 61.2514 9.60553 61.2561 10.4215L61.2629 11.5735C61.2647 11.8855 61.1582 12.1501 60.9435 12.3674C60.7286 12.5606 60.4652 12.6582 60.1532 12.66C59.7932 12.6621 59.5286 12.5556 59.3593 12.3406C59.19 12.1256 59.1045 11.8621 59.1027 11.5501L59.0979 10.7221C59.0938 10.0261 58.6838 9.68051 57.8678 9.68527C56.4518 9.69352 54.9937 10.71 53.4935 12.7348C53.1363 13.2169 52.8398 13.8187 52.604 14.54C52.3922 15.2613 52.2881 15.9339 52.2918 16.5579L52.3022 24.514C52.3037 24.778 52.1851 25.0187 51.9464 25.2361C51.7316 25.4533 51.4803 25.5628 51.1923 25.5645ZM68.9849 32.0128C67.6409 32.0207 66.1759 31.8492 64.5898 31.4984C64.3256 31.452 64.1088 31.3212 63.9395 31.1062C63.7704 30.9152 63.6851 30.6877 63.6836 30.4237C63.6817 30.1117 63.7882 29.8471 64.0029 29.6298C64.2417 29.4124 64.517 29.3028 64.829 29.301C64.949 29.3003 65.2253 29.3467 65.6579 29.4402C66.7392 29.6739 67.8319 29.7875 68.9359 29.7811C70.7119 29.7707 71.9932 29.3072 72.7799 28.3906C73.5907 27.4979 74.0272 26.2233 74.0896 24.5669L74.1511 22.7665C73.532 23.6102 72.8038 24.2624 71.9665 24.7233C71.129 25.1602 70.2303 25.3934 69.2705 25.423C67.9265 25.4309 66.7004 25.066 65.5921 24.3285C64.5077 23.5908 63.6498 22.5758 63.0183 21.2834C62.3866 19.9671 62.066 18.5049 62.0567 16.897C62.0473 15.289 62.4104 13.7628 63.146 12.3185C63.9054 10.8501 64.9306 9.68008 66.2216 8.80854C67.5124 7.913 68.9498 7.46061 70.5337 7.45137C71.7577 7.44423 73.0438 7.79674 74.392 8.50889C74.3862 7.52491 74.7553 7.03075 75.4993 7.02641C75.8113 7.02459 76.076 7.13105 76.2932 7.34578C76.5345 7.56038 76.6561 7.83568 76.658 8.17167L76.358 24.6257C76.3242 27.0739 75.627 28.914 74.2661 30.146C72.9293 31.3778 71.1689 32.0001 68.9849 32.0128ZM68.9699 23.2648C70.4339 23.2562 71.6784 22.661 72.7036 21.479C73.7527 20.2968 74.2697 18.4098 74.2546 15.8178L74.225 10.7419C73.8392 10.4321 73.3097 10.1832 72.6366 9.99515C71.9873 9.78293 71.3387 9.67871 70.6907 9.68249C69.4908 9.68949 68.3887 10.0199 67.3845 10.6738C66.3801 11.3037 65.5812 12.1723 64.9876 13.2798C64.3941 14.3873 64.1012 15.613 64.109 16.957C64.1146 17.917 64.2883 18.888 64.63 19.87C64.9958 20.8519 65.5405 21.6647 66.2643 22.3085C67.0121 22.9522 67.9139 23.2709 68.9699 23.2648ZM83.631 4.56695C83.319 4.56877 83.0544 4.46231 82.8371 4.24757C82.6198 4.03283 82.5103 3.76947 82.5085 3.45747L82.5359 1.98129C82.5342 1.69329 82.6527 1.4406 82.8915 1.2232C83.1302 1.00581 83.3936 0.89627 83.6816 0.89459C83.9696 0.892911 84.2222 1.01144 84.4396 1.25018C84.6569 1.46491 84.7664 1.71628 84.768 2.00427L84.7407 3.48046C84.7425 3.79245 84.624 4.05715 84.3853 4.27454C84.1704 4.4678 83.919 4.56527 83.631 4.56695ZM83.5363 25.3759C83.2243 25.3777 82.9477 25.2713 82.7064 25.0567C82.465 24.8181 82.3434 24.5428 82.3416 24.2308L82.4665 8.60581C82.4647 8.29381 82.5831 8.01712 82.8217 7.77572C83.0603 7.53433 83.3356 7.41272 83.6476 7.4109C83.9595 7.40908 84.2242 7.52754 84.4416 7.76628C84.6829 7.98087 84.8045 8.25617 84.8065 8.59216L84.6816 24.2172C84.6834 24.5292 84.565 24.8058 84.3264 25.0472C84.1117 25.2645 83.8483 25.374 83.5363 25.3759Z" fill="#ED0C0C"/>
<path d="M10.0205 24.3645L9.50558 25.2217L9.51284 25.2261L9.52018 25.2303L10.0205 24.3645ZM6.03604 20.1757L5.15386 20.6466L5.15758 20.6536L5.16141 20.6605L6.03604 20.1757ZM5.96467 7.9359L6.86388 8.37345L6.86598 8.36907L5.96467 7.9359ZM9.96847 3.08847L9.38354 2.27736L9.37826 2.28122L9.96847 3.08847ZM21.1609 2.44719L20.645 3.30385L20.6535 3.30896L20.6621 3.31389L21.1609 2.44719ZM24.4179 5.34425L23.5835 5.89539L23.5835 5.89539L24.4179 5.34425ZM25.1936 8.72378L25.8565 9.47253L25.8623 9.4673L25.1936 8.72378ZM23.718 8.80439L23.1227 9.60787L23.1776 9.64854L23.2375 9.68136L23.718 8.80439ZM23.2827 8.23092L22.3484 8.58749L22.3523 8.59765L22.3564 8.60772L23.2827 8.23092ZM20.707 4.86188L20.0888 5.64792L20.0976 5.65484L20.1066 5.66156L20.707 4.86188ZM7.81029 9.58116L6.87871 9.21755L6.87594 9.22483L7.81029 9.58116ZM8.0815 19.0477L7.19868 19.5174L7.20331 19.5262L7.20811 19.5348L8.0815 19.0477ZM11.233 22.3774L10.7165 23.2337L10.7258 23.2393L10.7351 23.2447L11.233 22.3774ZM20.5539 21.8191L21.1733 22.6041L21.1751 22.6027L20.5539 21.8191ZM23.4432 17.2301L24.4119 17.4784L24.7337 16.2226L23.4373 16.2302L23.4432 17.2301ZM18.802 17.7252L19.0038 18.7046L19.0271 18.6998L19.0502 18.6939L18.802 17.7252ZM17.181 17.5547L17.8839 16.8434L17.8839 16.8434L17.181 17.5547ZM17.0283 16.0795L16.1931 15.5297L16.185 15.542L16.1773 15.5545L17.0283 16.0795ZM17.6376 15.608L17.2904 14.6702L17.2904 14.6702L17.6376 15.608ZM26.5652 15.5199L26.2103 16.4548L26.2464 16.4685L26.2835 16.4794L26.5652 15.5199ZM26.9722 17.3896L26.2609 16.6866L26.2609 16.6866L26.9722 17.3896ZM26.2541 17.7178L26.2599 18.7177L26.3015 18.7175L26.3429 18.7138L26.2541 17.7178ZM25.7134 17.6129L26.0591 16.6745L24.9998 16.2843L24.7402 17.383L25.7134 17.6129ZM22.1837 23.5016L22.8314 24.2635L22.8373 24.2585L22.1837 23.5016ZM15.4952 24.8086C13.7029 24.8191 12.0511 24.383 10.5209 23.4987L9.52018 25.2303C11.3614 26.2944 13.3633 26.8211 15.5069 26.8086L15.4952 24.8086ZM10.5355 23.5073C9.03299 22.6047 7.82518 21.3408 6.91068 19.6909L5.16141 20.6605C6.23587 22.599 7.68439 24.1277 9.50558 25.2217L10.5355 23.5073ZM6.91823 19.7048C6.03421 18.0487 5.57243 16.1271 5.55952 13.9144L3.55956 13.926C3.57408 16.4172 4.09663 18.666 5.15386 20.6466L6.91823 19.7048ZM5.55952 13.9144C5.54858 12.0375 5.97809 10.1938 6.86387 8.37344L5.06547 7.49835C4.05395 9.57713 3.54671 11.7229 3.55956 13.926L5.55952 13.9144ZM6.86598 8.36907C7.74519 6.5397 8.97462 5.05388 10.5587 3.89572L9.37826 2.28122C7.52094 3.63917 6.08117 5.38496 5.06336 7.50272L6.86598 8.36907ZM10.5534 3.89956C12.1228 2.7678 13.907 2.19349 15.9393 2.18163L15.9276 0.181668C13.496 0.195848 11.3036 0.89274 9.38355 2.27738L10.5534 3.89956ZM15.9393 2.18163C17.8641 2.17041 19.4158 2.56358 20.645 3.30385L21.6768 1.59053C20.0641 0.619342 18.1307 0.168821 15.9276 0.181668L15.9393 2.18163ZM20.6621 3.31389C22.0069 4.08786 22.9625 4.95526 23.5835 5.89539L25.2523 4.79311C24.4204 3.53367 23.2047 2.4697 21.6597 1.58049L20.6621 3.31389ZM23.5835 5.89539C24.2934 6.97019 24.5112 7.63411 24.5132 7.97174L26.5132 7.96007C26.5076 7.00173 25.9952 5.91788 25.2523 4.79311L23.5835 5.89539ZM24.5132 7.97174C24.5133 7.99201 24.5116 8.00299 24.511 8.00643C24.5104 8.00958 24.5106 8.00703 24.5132 8.00082C24.5159 7.99447 24.5195 7.98812 24.5232 7.98296C24.5268 7.97794 24.5283 7.97719 24.5249 7.98026L25.8623 9.4673C26.3079 9.06656 26.5165 8.53211 26.5132 7.96007L24.5132 7.97174ZM24.5307 7.97506C24.5467 7.96094 24.5563 7.95961 24.5439 7.96363C24.5283 7.96871 24.4835 7.97991 24.3972 7.98041L24.4089 9.98038C24.909 9.97746 25.4331 9.84735 25.8565 9.47251L24.5307 7.97506ZM24.3972 7.98041C24.3323 7.98079 24.2708 7.967 24.1986 7.92741L23.2375 9.68136C23.5986 9.87925 23.9938 9.9828 24.4089 9.98038L24.3972 7.98041ZM24.3134 8.0009C24.2792 7.97563 24.2428 7.93725 24.209 7.85412L22.3564 8.60772C22.5174 9.00345 22.7712 9.34739 23.1227 9.60787L24.3134 8.0009ZM24.217 7.87434C23.6344 6.34805 22.6556 5.0745 21.3074 4.0622L20.1066 5.66156C21.1689 6.45923 21.9073 7.43171 22.3484 8.58749L24.217 7.87434ZM21.3252 4.07584C19.9155 2.96722 18.0855 2.47312 15.9411 2.48563L15.9527 4.4856C17.7922 4.47487 19.1356 4.89828 20.0888 5.64792L21.3252 4.07584ZM15.9411 2.48563C13.6692 2.49888 11.7125 3.17699 10.1457 4.5677L11.4733 6.0635C12.6284 5.0383 14.0966 4.49642 15.9527 4.4856L15.9411 2.48563ZM10.1457 4.5677C8.67072 5.87681 7.57691 7.42888 6.87874 9.21756L8.74185 9.94477C9.32063 8.46195 10.2263 7.17031 11.4733 6.0635L10.1457 4.5677ZM6.87594 9.22483C6.23193 10.9135 5.89117 12.4812 5.89952 13.9124L7.89948 13.9007C7.893 12.7879 8.15943 11.472 8.74465 9.9375L6.87594 9.22483ZM5.89952 13.9124C5.91176 16.0115 6.33293 17.8903 7.19868 19.5174L8.96432 18.578C8.27702 17.2862 7.9102 15.7375 7.89948 13.9007L5.89952 13.9124ZM7.20811 19.5348C8.08612 21.1093 9.25469 22.3521 10.7165 23.2337L11.7494 21.5211C10.6101 20.8339 9.67765 19.8569 8.95489 18.5607L7.20811 19.5348ZM10.7351 23.2447C12.2112 24.092 13.803 24.5145 15.4934 24.5046L15.4818 22.5046C14.1483 22.5124 12.9037 22.1834 11.7308 21.5102L10.7351 23.2447ZM15.4934 24.5046C17.6615 24.492 19.5719 23.8678 21.1733 22.6041L19.9344 21.034C18.7168 21.9948 17.2497 22.4943 15.4818 22.5046L15.4934 24.5046ZM21.1751 22.6027C22.7946 21.3188 23.8697 19.5938 24.4119 17.4784L22.4745 16.9819C22.031 18.7123 21.18 20.0466 19.9326 21.0354L21.1751 22.6027ZM23.4373 16.2302L22.5013 16.2356L22.513 18.2356L23.449 18.2301L23.4373 16.2302ZM22.5013 16.2356C21.1915 16.2432 19.8751 16.418 18.5538 16.7565L19.0502 18.6939C20.2211 18.3939 21.3749 18.2422 22.513 18.2356L22.5013 16.2356ZM18.6001 16.7458C18.3636 16.7945 18.1842 16.8297 18.0585 16.8523C17.9952 16.8637 17.9518 16.8708 17.9246 16.8747C17.8805 16.881 17.9109 16.8744 17.969 16.874L17.9807 18.874C18.1221 18.8732 18.3052 18.84 18.4127 18.8207C18.5627 18.7937 18.7609 18.7547 19.0038 18.7046L18.6001 16.7458ZM17.969 16.874C17.9306 16.8743 17.9166 16.8682 17.9156 16.8678C17.915 16.8676 17.9049 16.8642 17.8839 16.8434L16.478 18.2659C16.8883 18.6715 17.4098 18.8773 17.9807 18.874L17.969 16.874ZM17.8839 16.8434C17.8703 16.83 17.8671 16.8228 17.8649 16.8173C17.862 16.8099 17.8525 16.7826 17.8521 16.7227L15.8521 16.7344C15.8555 17.3065 16.0523 17.8452 16.478 18.2659L17.8839 16.8434ZM17.8521 16.7227C17.8517 16.6584 17.8649 16.628 17.8794 16.6046L16.1773 15.5545C15.954 15.9164 15.8497 16.3187 15.8521 16.7344L17.8521 16.7227ZM17.8636 16.6294C17.8794 16.6054 17.9039 16.5757 17.9848 16.5457L17.2904 14.6702C16.8444 14.8353 16.4628 15.12 16.1931 15.5297L17.8636 16.6294ZM17.9848 16.5457C18.4115 16.3878 19.0595 16.2396 19.9638 16.1183L19.6979 14.136C18.7316 14.2657 17.9174 14.438 17.2904 14.6702L17.9848 16.5457ZM19.9638 16.1183C20.8584 15.9983 21.7395 15.936 22.6076 15.931L22.5959 13.931C21.64 13.9366 20.6739 14.0051 19.6979 14.136L19.9638 16.1183ZM22.6076 15.931C24.1139 15.9222 25.3032 16.1104 26.2103 16.4548L26.9202 14.585C25.7106 14.1257 24.2576 13.9213 22.5959 13.931L22.6076 15.931ZM26.2835 16.4794C26.3155 16.4888 26.3211 16.4951 26.3124 16.4891C26.3021 16.482 26.2888 16.4694 26.2786 16.4543C26.2581 16.4239 26.2906 16.4468 26.2915 16.6015L28.2915 16.5899C28.2891 16.1686 28.1989 15.7242 27.9362 15.3352C27.6648 14.9331 27.2735 14.6857 26.847 14.5604L26.2835 16.4794ZM26.2915 16.6015C26.2918 16.6399 26.2857 16.6539 26.2853 16.6549C26.2851 16.6555 26.2817 16.6656 26.2609 16.6866L27.6834 18.0925C28.089 17.6822 28.2948 17.1607 28.2915 16.5899L26.2915 16.6015ZM26.2609 16.6866C26.2475 16.7001 26.2339 16.7156 26.1652 16.7217L26.3429 18.7138C26.85 18.6686 27.315 18.4652 27.6834 18.0925L26.2609 16.6866ZM26.2482 16.7178C26.2233 16.7179 26.163 16.7128 26.0591 16.6745L25.3678 18.5513C25.6487 18.6547 25.9488 18.7195 26.2599 18.7177L26.2482 16.7178ZM24.7402 17.383C24.2248 19.5646 23.1562 21.3406 21.5302 22.7447L22.8373 24.2585C24.7932 22.5696 26.0778 20.4198 26.6866 17.8428L24.7402 17.383ZM21.5361 22.7396C19.948 24.0895 17.9572 24.7943 15.4952 24.8086L15.5069 26.8086C18.3728 26.7919 20.8371 25.9586 22.8314 24.2635L21.5361 22.7396ZM42.4935 25.5432L43.2707 24.914L43.2544 24.8938L43.237 24.8745L42.4935 25.5432ZM42.1948 23.7089L43.1948 23.7031L43.1818 21.4763L41.5261 22.9654L42.1948 23.7089ZM39.863 25.1265L40.2142 26.0628L40.2249 26.0588L40.2356 26.0545L39.863 25.1265ZM33.6324 24.6948L34.1592 23.8449L34.1592 23.8449L33.6324 24.6948ZM31.1685 21.9732L30.2695 22.4111L30.2748 22.4221L30.2804 22.4328L31.1685 21.9732ZM31.2608 13.1165L30.343 12.7195L30.3401 12.7262L31.2608 13.1165ZM34.2261 9.21112L33.6146 8.41987L33.6076 8.42536L34.2261 9.21112ZM41.7797 8.08705L42.0985 7.13923L42.0985 7.13923L41.7797 8.08705ZM44.3417 9.11613L45.3417 9.1103L45.338 8.47664L44.7635 8.20941L44.3417 9.11613ZM44.1135 25.5337L43.4022 24.8308L43.3838 24.8495L43.3663 24.8691L44.1135 25.5337ZM39.9218 22.8581L40.3461 23.7636L40.3556 23.7592L40.365 23.7546L39.9218 22.8581ZM42.0734 21.4056L42.7846 22.1085L43.0703 21.8194L43.0733 21.4129L42.0734 21.4056ZM42.1538 10.4969L43.1537 10.5043L43.1586 9.84082L42.5492 9.57843L42.1538 10.4969ZM40.639 10.0377L40.375 11.0023L40.3973 11.0084L40.4199 11.0134L40.639 10.0377ZM35.7117 10.8585L35.1295 10.0454L35.1295 10.0454L35.7117 10.8585ZM33.3886 13.7521L32.4813 13.3316L32.4777 13.3395L33.3886 13.7521ZM33.8686 21.9934L33.0968 22.6292L33.0968 22.6292L33.8686 21.9934ZM43.3177 24.8984C43.2485 24.8988 43.2294 24.8875 43.2394 24.8918C43.2441 24.8938 43.2515 24.8977 43.2592 24.9036C43.2628 24.9063 43.2657 24.9089 43.2678 24.9109C43.2699 24.913 43.2709 24.9141 43.2707 24.914L41.7163 26.1724C42.1347 26.6893 42.7239 26.9019 43.3294 26.8983L43.3177 24.8984ZM43.237 24.8745C43.2338 24.8709 43.2014 24.8444 43.2007 24.7111L41.2007 24.7227C41.2038 25.2613 41.3667 25.7858 41.75 26.2119L43.237 24.8745ZM43.2007 24.7111L43.1948 23.7031L41.1948 23.7147L41.2007 24.7227L43.2007 24.7111ZM41.5261 22.9654C40.9792 23.4572 40.3057 23.8712 39.4904 24.1985L40.2356 26.0545C41.2402 25.6512 42.1211 25.1201 42.8635 24.4524L41.5261 22.9654ZM39.5118 24.1902C38.705 24.4928 37.9106 24.6419 37.1242 24.6465L37.1358 26.6464C38.1734 26.6404 39.201 26.4428 40.2142 26.0628L39.5118 24.1902ZM37.1242 24.6465C36.0038 24.653 35.0248 24.3813 34.1592 23.8449L33.1056 25.5448C34.3115 26.2923 35.6642 26.655 37.1358 26.6464L37.1242 24.6465ZM34.1592 23.8449C33.2896 23.3059 32.5876 22.5395 32.0566 21.5135L30.2804 22.4328C30.9631 23.7518 31.9036 24.7999 33.1056 25.5448L34.1592 23.8449ZM32.0675 21.5352C31.5585 20.4905 31.2888 19.2871 31.2808 17.9044L29.2808 17.9161C29.2904 19.5574 29.6125 21.0626 30.2695 22.4111L32.0675 21.5352ZM31.2808 17.9044C31.2721 16.4141 31.5695 14.9506 32.1815 13.5067L30.3401 12.7262C29.6264 14.4102 29.2705 16.1425 29.2808 17.9161L31.2808 17.9044ZM32.1787 13.5134C32.8032 12.0694 33.6921 10.9041 34.8447 9.99688L33.6076 8.42536C32.1799 9.54921 31.092 10.9875 30.343 12.7195L32.1787 13.5134ZM34.8377 10.0023C35.9658 9.13037 37.2942 8.68122 38.8671 8.67205L38.8554 6.67208C36.8763 6.68362 35.1146 7.2605 33.6146 8.4199L34.8377 10.0023ZM38.8671 8.67205C39.8864 8.6661 40.7457 8.79432 41.4609 9.03487L42.0985 7.13923C41.1303 6.81359 40.044 6.66515 38.8554 6.67208L38.8671 8.67205ZM41.4609 9.03487C42.265 9.30534 43.0847 9.63433 43.92 10.0229L44.7635 8.20941C43.8661 7.79203 42.9777 7.43496 42.0985 7.13923L41.4609 9.03487ZM43.3418 9.12196L43.4327 24.7097L45.4326 24.698L45.3417 9.1103L43.3418 9.12196ZM43.4327 24.7097C43.433 24.7695 43.4238 24.7969 43.421 24.8044C43.4188 24.8099 43.4157 24.8172 43.4022 24.8308L44.8247 26.2367C45.2454 25.8111 45.436 25.2701 45.4326 24.698L43.4327 24.7097ZM43.3663 24.8691C43.3525 24.8846 43.343 24.8925 43.3387 24.8957C43.3346 24.8989 43.3338 24.8989 43.3359 24.8979C43.3381 24.8969 43.3396 24.8966 43.3388 24.8968C43.3378 24.897 43.3313 24.8983 43.3177 24.8984L43.3294 26.8983C43.9359 26.8948 44.4651 26.643 44.8607 26.1984L43.3663 24.8691ZM37.1235 24.5225C38.2182 24.5161 39.2951 24.2562 40.3461 23.7636L39.4974 21.9526C38.6816 22.335 37.889 22.518 37.1118 22.5225L37.1235 24.5225ZM40.365 23.7546C41.3562 23.2645 42.1785 22.7217 42.7846 22.1085L41.3621 20.7026C40.9661 21.1033 40.354 21.5289 39.4786 21.9617L40.365 23.7546ZM43.0733 21.4129L43.1537 10.5043L41.1538 10.4895L41.0734 21.3982L43.0733 21.4129ZM42.5492 9.57843C42.086 9.37897 41.5154 9.20968 40.8582 9.06205L40.4199 11.0134C41.0123 11.1465 41.4516 11.2833 41.7583 11.4154L42.5492 9.57843ZM40.9031 9.07322C40.2295 8.88885 39.5735 8.79193 38.9398 8.79563L38.9514 10.7956C39.3736 10.7931 39.8466 10.8576 40.375 11.0023L40.9031 9.07322ZM38.9398 8.79563C37.5515 8.80372 36.2732 9.2265 35.1295 10.0454L36.294 11.6715C37.1102 11.087 37.9877 10.8012 38.9514 10.7956L38.9398 8.79563ZM35.1295 10.0454C33.9926 10.8596 33.1137 11.9671 32.4813 13.3316L34.2959 14.1726C34.8011 13.0824 35.471 12.2608 36.294 11.6715L35.1295 10.0454ZM32.4777 13.3395C31.8651 14.6918 31.5748 16.1953 31.5843 17.8307L33.5843 17.819C33.5762 16.4305 33.8221 15.2187 34.2995 14.1647L32.4777 13.3395ZM31.5843 17.8307C31.5955 19.7392 32.0639 21.3752 33.0968 22.6292L34.6405 21.3576C33.9814 20.5575 33.5936 19.4144 33.5843 17.819L31.5843 17.8307ZM33.0968 22.6292C34.1322 23.8863 35.4998 24.532 37.1235 24.5225L37.1118 22.5225C36.0954 22.5284 35.2971 22.1547 34.6405 21.3576L33.0968 22.6292ZM50.3984 25.2451L51.063 24.4979L51.063 24.4979L50.3984 25.2451ZM50.2614 7.92959L50.9301 8.67313L50.9347 8.66897L50.2614 7.92959ZM51.9174 7.91993L51.2144 8.63115L51.2353 8.65181L51.2574 8.67121L51.9174 7.91993ZM52.2636 11.734L51.2637 11.7398L51.2856 15.5053L53.1348 12.225L52.2636 11.734ZM54.7302 8.73155L55.373 9.49757L55.3748 9.49602L54.7302 8.73155ZM60.524 8.33776L59.7314 8.94747L59.745 8.96526L59.7595 8.98241L60.524 8.33776ZM60.9435 12.3674L61.6122 13.1109L61.634 13.0912L61.6547 13.0703L60.9435 12.3674ZM53.4935 12.7348L52.69 12.1395L52.69 12.1395L53.4935 12.7348ZM52.604 14.54L51.6535 14.2294L51.6488 14.2438L51.6445 14.2583L52.604 14.54ZM52.2918 16.5579L53.2918 16.5566L53.2917 16.5521L52.2918 16.5579ZM52.3022 24.514L51.3022 24.5153L51.3022 24.5198L52.3022 24.514ZM51.9464 25.2361L51.2731 24.4967L51.2536 24.5144L51.2351 24.5331L51.9464 25.2361ZM51.1864 24.5645C51.1759 24.5645 51.1437 24.5697 51.063 24.4979L49.7338 25.9923C50.1356 26.3497 50.6327 26.5677 51.1981 26.5644L51.1864 24.5645ZM51.063 24.4979C51.0174 24.4573 51.0121 24.4401 51.0182 24.4522C51.0213 24.4584 51.0258 24.469 51.0293 24.4833C51.0328 24.4976 51.0341 24.5109 51.0342 24.5214L49.0342 24.533C49.0378 25.1424 49.3318 25.6347 49.7338 25.9923L51.063 24.4979ZM51.0342 24.5214L50.9418 8.68164L48.9418 8.6933L49.0342 24.533L51.0342 24.5214ZM50.9418 8.68164C50.9417 8.66136 50.9434 8.65039 50.944 8.64695C50.9446 8.6438 50.9444 8.64635 50.9418 8.65256C50.9391 8.6589 50.9355 8.66525 50.9318 8.67041C50.9282 8.67543 50.9267 8.67619 50.9301 8.67311L49.5927 7.18607C49.1471 7.58681 48.9385 8.12127 48.9418 8.6933L50.9418 8.68164ZM50.9347 8.66897C50.9978 8.61153 51.0377 8.60108 51.0933 8.60075L51.0817 6.60079C50.5133 6.6041 50.0025 6.81287 49.5881 7.19021L50.9347 8.66897ZM51.0933 8.60075C51.1532 8.6004 51.1806 8.60958 51.188 8.61244C51.1936 8.61458 51.2008 8.61772 51.2144 8.63115L52.6204 7.20872C52.1947 6.78802 51.6538 6.59745 51.0817 6.60079L51.0933 8.60075ZM51.2574 8.67121C51.2608 8.67424 51.2594 8.6735 51.2557 8.66853C51.2519 8.66341 51.2482 8.6571 51.2455 8.65079C51.2428 8.64461 51.2426 8.64206 51.2432 8.6452C51.2439 8.64864 51.2457 8.65959 51.2458 8.67986L53.2458 8.6682C53.2424 8.09617 53.0276 7.56418 52.5774 7.16866L51.2574 8.67121ZM51.2458 8.67986L51.2637 11.7398L53.2636 11.7281L53.2458 8.6682L51.2458 8.67986ZM53.1348 12.225C53.7445 11.1435 54.4911 10.2376 55.373 9.49757L54.0874 7.96552C53.0108 8.86896 52.1131 9.96469 51.3925 11.2429L53.1348 12.225ZM55.3748 9.49602C56.1944 8.80491 57.1404 8.45749 58.2566 8.45098L58.2449 6.45101C56.6732 6.46018 55.2721 6.96645 54.0855 7.96707L55.3748 9.49602ZM58.2566 8.45098C59.1333 8.44587 59.5311 8.68716 59.7314 8.94747L61.3166 7.72804C60.5978 6.79368 59.4802 6.44381 58.2449 6.45101L58.2566 8.45098ZM59.7595 8.98241C60.0783 9.36052 60.2526 9.82313 60.2562 10.4274L62.2561 10.4157C62.2501 9.38794 61.9363 8.46138 61.2884 7.6931L59.7595 8.98241ZM60.2562 10.4274L60.2629 11.5793L62.2628 11.5677L62.2561 10.4157L60.2562 10.4274ZM60.2629 11.5793C60.2631 11.6177 60.257 11.6317 60.2566 11.6327C60.2564 11.6333 60.253 11.6434 60.2323 11.6644L61.6547 13.0703C62.0603 12.66 62.2662 12.1385 62.2628 11.5677L60.2629 11.5793ZM60.2748 11.6239C60.2571 11.6397 60.2356 11.6595 60.1473 11.66L60.159 13.66C60.6948 13.6569 61.2001 13.4815 61.6122 13.1109L60.2748 11.6239ZM60.1473 11.66C60.0644 11.6605 60.0427 11.6479 60.0579 11.654C60.0663 11.6574 60.0815 11.6647 60.0994 11.678C60.1176 11.6915 60.1331 11.7069 60.1451 11.7221L58.5735 12.9591C58.9906 13.4889 59.5959 13.6633 60.159 13.66L60.1473 11.66ZM60.1451 11.7221C60.1323 11.7059 60.1034 11.6666 60.1027 11.5443L58.1027 11.5559C58.1056 12.0576 58.2478 12.5453 58.5735 12.9591L60.1451 11.7221ZM60.1027 11.5443L60.0978 10.7163L58.0979 10.7279L58.1027 11.5559L60.1027 11.5443ZM60.0978 10.7163C60.0946 10.1689 59.9234 9.59065 59.4318 9.1763C58.9708 8.78775 58.3886 8.68221 57.862 8.68528L57.8736 10.6853C58.0098 10.6845 58.0926 10.6989 58.1358 10.7109C58.1762 10.7221 58.1687 10.7273 58.1428 10.7055C58.1135 10.6808 58.0957 10.6511 58.0894 10.6352C58.0855 10.6255 58.0974 10.6494 58.0979 10.7279L60.0978 10.7163ZM57.862 8.68528C55.9531 8.69642 54.2372 10.0514 52.69 12.1395L54.297 13.3302C55.7503 11.3687 56.9505 10.6906 57.8736 10.6853L57.862 8.68528ZM52.69 12.1395C52.2545 12.7273 51.9143 13.4316 51.6535 14.2294L53.5545 14.8507C53.7653 14.2057 54.0181 13.7065 54.297 13.3302L52.69 12.1395ZM51.6445 14.2583C51.4107 15.0545 51.2875 15.8249 51.2918 16.5637L53.2917 16.5521C53.2888 16.0429 53.3737 15.4681 53.5635 14.8218L51.6445 14.2583ZM51.2918 16.5592L51.3022 24.5153L53.3022 24.5127L53.2918 16.5566L51.2918 16.5592ZM51.3022 24.5198C51.3021 24.5093 51.3033 24.496 51.3066 24.4817C51.31 24.4674 51.3143 24.4567 51.3173 24.4505C51.3234 24.4383 51.3183 24.4555 51.2731 24.4967L52.6197 25.9754C53.0174 25.6132 53.3057 25.1175 53.3021 24.5081L51.3022 24.5198ZM51.2351 24.5331C51.2206 24.5478 51.2102 24.5559 51.2044 24.5599C51.1989 24.5638 51.1967 24.5646 51.1975 24.5643C51.1978 24.5642 51.1983 24.564 51.1988 24.5638C51.1994 24.5636 51.1997 24.5635 51.1996 24.5636C51.1995 24.5636 51.1956 24.5644 51.1864 24.5645L51.1981 26.5644C51.7686 26.5611 52.269 26.3322 52.6576 25.939L51.2351 24.5331ZM64.5898 31.4984L64.8058 30.522L64.7845 30.5173L64.763 30.5135L64.5898 31.4984ZM63.9395 31.1062L64.7253 30.4877L64.7074 30.465L64.6883 30.4433L63.9395 31.1062ZM64.0029 29.6298L63.3297 28.8905L63.3102 28.9082L63.2917 28.9269L64.0029 29.6298ZM65.6579 29.4402L65.4466 30.4176L65.6579 29.4402ZM72.7799 28.3906L72.0396 27.7183L72.0302 27.7287L72.021 27.7394L72.7799 28.3906ZM74.0896 24.5669L75.0889 24.6045L75.089 24.6011L74.0896 24.5669ZM74.1511 22.7665L75.1505 22.8007L75.2611 19.5637L73.3449 22.1749L74.1511 22.7665ZM71.9665 24.7233L72.429 25.6099L72.4389 25.6048L72.4487 25.5994L71.9665 24.7233ZM69.2705 25.423L69.2763 26.423L69.2888 26.423L69.3013 26.4226L69.2705 25.423ZM65.5921 24.3285L65.0295 25.1553L65.038 25.161L65.5921 24.3285ZM63.0183 21.2834L62.1167 21.7161L62.1198 21.7225L63.0183 21.2834ZM63.146 12.3185L62.2577 11.8591L62.2549 11.8647L63.146 12.3185ZM66.2216 8.80854L66.7812 9.63741L66.7916 9.63016L66.2216 8.80854ZM74.392 8.50889L73.9249 9.39311L75.4017 10.1732L75.3919 8.50306L74.392 8.50889ZM76.2932 7.34578L75.5902 8.057L75.6089 8.07549L75.6286 8.09297L76.2932 7.34578ZM76.658 8.17167L77.6579 8.1899L77.6581 8.17787L77.658 8.16584L76.658 8.17167ZM76.358 24.6257L75.3581 24.6075L75.3581 24.6119L76.358 24.6257ZM74.2661 30.146L73.595 29.4046L73.5885 29.4106L74.2661 30.146ZM72.7036 21.479L71.9556 20.8151L71.9481 20.8238L72.7036 21.479ZM74.225 10.7419L75.225 10.7361L75.2222 10.2601L74.851 9.96212L74.225 10.7419ZM72.6366 9.99515L72.3259 10.9457L72.3466 10.9524L72.3675 10.9583L72.6366 9.99515ZM67.3845 10.6738L67.9158 11.521L67.923 11.5164L67.9301 11.5118L67.3845 10.6738ZM64.9876 13.2798L64.1062 12.8074L64.1062 12.8074L64.9876 13.2798ZM64.63 19.87L63.6856 20.1987L63.6892 20.2089L63.6929 20.2191L64.63 19.87ZM66.2643 22.3085L65.5997 23.0557L65.6057 23.0611L65.6119 23.0664L66.2643 22.3085ZM68.9791 31.0128C67.7232 31.0202 66.3336 30.8599 64.8058 30.522L64.3739 32.4748C66.0183 32.8385 67.5587 33.0212 68.9908 33.0128L68.9791 31.0128ZM64.763 30.5135C64.753 30.5118 64.7478 30.51 64.7462 30.5094C64.7447 30.5089 64.7448 30.5088 64.7455 30.5092C64.7462 30.5096 64.7453 30.5092 64.7426 30.5068C64.7398 30.5043 64.7338 30.4985 64.7253 30.4877L63.1538 31.7248C63.4719 32.1289 63.9049 32.3934 64.4167 32.4833L64.763 30.5135ZM64.6883 30.4433C64.6838 30.4383 64.6825 30.436 64.6829 30.4366C64.6833 30.4373 64.6842 30.439 64.685 30.4412C64.6858 30.4433 64.6856 30.4435 64.6852 30.4408C64.6847 30.438 64.6836 30.4307 64.6835 30.4179L62.6836 30.4295C62.6865 30.9265 62.8551 31.3899 63.1908 31.7691L64.6883 30.4433ZM64.6835 30.4179C64.6833 30.3795 64.6894 30.3655 64.6898 30.3645C64.69 30.3639 64.6934 30.3538 64.7142 30.3328L63.2917 28.9269C62.8861 29.3372 62.6803 29.8587 62.6836 30.4295L64.6835 30.4179ZM64.6762 30.3692C64.7393 30.3118 64.7792 30.3013 64.8349 30.301L64.8232 28.301C64.2549 28.3043 63.744 28.5131 63.3297 28.8905L64.6762 30.3692ZM64.8349 30.301C64.8071 30.3012 64.8018 30.299 64.8338 30.3027C64.861 30.3059 64.9023 30.3117 64.9606 30.3215C65.0774 30.3411 65.2379 30.3725 65.4466 30.4176L65.8691 28.4627C65.4712 28.3767 65.0763 28.2995 64.8232 28.301L64.8349 30.301ZM65.4466 30.4176C66.5992 30.6667 67.7646 30.7879 68.9417 30.7811L68.9301 28.7811C67.8992 28.7871 66.8793 28.6811 65.8691 28.4627L65.4466 30.4176ZM68.9417 30.7811C70.8686 30.7698 72.4887 30.2654 73.5387 29.0419L72.021 27.7394C71.4977 28.3491 70.5552 28.7716 68.9301 28.7811L68.9417 30.7811ZM73.5201 29.063C74.5399 27.9402 75.021 26.4085 75.0889 24.6045L73.0903 24.5293C73.0335 26.0381 72.6415 27.0556 72.0396 27.7183L73.5201 29.063ZM75.089 24.6011L75.1505 22.8007L73.1517 22.7324L73.0902 24.5328L75.089 24.6011ZM73.3449 22.1749C72.8036 22.9125 72.1825 23.4629 71.4843 23.8473L72.4487 25.5994C73.4251 25.0619 74.2604 24.3078 74.9573 23.3582L73.3449 22.1749ZM71.5039 23.8367C70.8023 24.2027 70.0515 24.3985 69.2397 24.4235L69.3013 26.4226C70.4091 26.3884 71.4557 26.1177 72.429 25.6099L71.5039 23.8367ZM69.2647 24.4231C68.1178 24.4297 67.0869 24.1221 66.1461 23.496L65.038 25.161C66.3138 26.01 67.7353 26.432 69.2763 26.423L69.2647 24.4231ZM66.1545 23.5017C65.2277 22.8711 64.4795 21.996 63.9167 20.8444L62.1198 21.7225C62.8201 23.1556 63.7878 24.3105 65.0296 25.1553L66.1545 23.5017ZM63.9198 20.8508C63.3583 19.6807 63.0652 18.3665 63.0566 16.8911L61.0567 16.9028C61.0668 18.6434 61.4148 20.2535 62.1167 21.7161L63.9198 20.8508ZM63.0566 16.8911C63.0482 15.4442 63.3734 14.0755 64.0371 12.7724L62.2549 11.8647C61.4474 13.4502 61.0464 15.1338 61.0567 16.9028L63.0566 16.8911ZM64.0342 12.7779C64.7216 11.4487 65.6375 10.4094 66.7811 9.63734L65.662 7.97974C64.2238 8.95073 63.0892 10.2514 62.2577 11.8592L64.0342 12.7779ZM66.7916 9.63016C67.9152 8.85064 69.1556 8.45942 70.5396 8.45135L70.5279 6.45139C68.7439 6.46179 67.1096 6.97536 65.6515 7.98692L66.7916 9.63016ZM70.5396 8.45135C71.5631 8.44538 72.6872 8.73933 73.9249 9.39311L74.859 7.62467C73.4004 6.85415 71.9523 6.44308 70.5279 6.45139L70.5396 8.45135ZM75.3919 8.50306C75.3909 8.31681 75.408 8.18687 75.429 8.10148C75.4497 8.01724 75.4699 7.99301 75.4657 7.99873C75.4572 8.01 75.4385 8.02603 75.4204 8.03416C75.408 8.03967 75.4282 8.02684 75.5052 8.02639L75.4935 6.02643C74.8805 6.03 74.2749 6.25084 73.8633 6.80184C73.4913 7.29988 73.3885 7.9253 73.392 8.51472L75.3919 8.50306ZM75.5052 8.02639C75.5436 8.02617 75.5576 8.03223 75.5586 8.03263C75.5591 8.03286 75.5693 8.03629 75.5902 8.057L76.9962 6.63456C76.5858 6.22897 76.0644 6.0231 75.4935 6.02643L75.5052 8.02639ZM75.6286 8.09297C75.6405 8.10357 75.6461 8.11055 75.6481 8.11332C75.6501 8.11591 75.6505 8.11694 75.6506 8.11727C75.6508 8.11767 75.6523 8.12103 75.6539 8.12919C75.6557 8.13762 75.6579 8.15315 75.658 8.1775L77.658 8.16584C77.6545 7.55943 77.4205 7.01012 76.9578 6.5986L75.6286 8.09297ZM75.6582 8.15344L75.3581 24.6075L77.3578 24.6439L77.6579 8.1899L75.6582 8.15344ZM75.3581 24.6119C75.3268 26.8794 74.6878 28.4154 73.595 29.4047L74.9373 30.8873C76.5662 29.4127 77.3217 27.2685 77.3579 24.6395L75.3581 24.6119ZM73.5885 29.4106C72.4703 30.4409 70.9669 31.0012 68.9791 31.0128L68.9908 33.0128C71.3709 32.9989 73.3882 32.3147 74.9438 30.8814L73.5885 29.4106ZM68.9757 24.2647C70.7492 24.2544 72.26 23.5167 73.459 22.1342L71.9481 20.8238C71.0969 21.8052 70.1185 22.258 68.9641 22.2648L68.9757 24.2647ZM73.4515 22.1427C74.7414 20.6893 75.2702 18.5026 75.2546 15.812L73.2546 15.8236C73.2691 18.3169 72.764 19.9043 71.9556 20.8152L73.4515 22.1427ZM75.2546 15.812L75.225 10.7361L73.225 10.7477L73.2546 15.8236L75.2546 15.812ZM74.851 9.96212C74.3259 9.54049 73.6592 9.24257 72.9057 9.03204L72.3675 10.9583C72.9602 11.1239 73.3524 11.3238 73.5989 11.5217L74.851 9.96212ZM72.9473 9.04464C72.2014 8.80085 71.4461 8.67807 70.6849 8.68251L70.6966 10.6825C71.2314 10.6794 71.7733 10.765 72.3259 10.9457L72.9473 9.04464ZM70.6849 8.68251C69.2935 8.69062 68.0039 9.07713 66.8388 9.83578L67.9301 11.5118C68.7734 10.9627 69.6881 10.6884 70.6966 10.6825L70.6849 8.68251ZM66.8532 9.82661C65.6926 10.5544 64.7768 11.5562 64.1062 12.8074L65.869 13.7522C66.3855 12.7884 67.0676 12.0529 67.9158 11.521L66.8532 9.82661ZM64.1062 12.8074C63.4284 14.0721 63.1003 15.464 63.1091 16.9628L65.109 16.9512C65.1021 15.762 65.3597 14.7025 65.869 13.7522L64.1062 12.8074ZM63.1091 16.9628C63.1154 18.0415 63.3107 19.1214 63.6856 20.1987L65.5745 19.5414C65.2659 18.6545 65.1139 17.7924 65.109 16.9512L63.1091 16.9628ZM63.6929 20.2191C64.1109 21.3411 64.7441 22.2947 65.5997 23.0557L66.9289 21.5613C66.3369 21.0348 65.8807 20.3627 65.5671 19.521L63.6929 20.2191ZM65.6119 23.0664C66.5562 23.8792 67.6967 24.2722 68.9757 24.2647L68.9641 22.2648C68.1311 22.2696 67.468 22.0252 66.9167 21.5506L65.6119 23.0664ZM82.8371 4.24757L83.5401 3.53635L83.5401 3.53635L82.8371 4.24757ZM82.5085 3.45747L81.5087 3.43892L81.5084 3.45111L81.5085 3.46331L82.5085 3.45747ZM82.5359 1.98129L83.5357 1.99984L83.5359 1.98765L83.5359 1.97546L82.5359 1.98129ZM82.8915 1.2232L82.2182 0.483823L82.2182 0.483823L82.8915 1.2232ZM84.4396 1.25018L83.7003 1.92346L83.718 1.94291L83.7367 1.96139L84.4396 1.25018ZM84.768 2.00427L85.7679 2.02283L85.7681 2.01064L85.768 1.99844L84.768 2.00427ZM84.7407 3.48046L83.7408 3.4619L83.7406 3.4741L83.7407 3.48629L84.7407 3.48046ZM84.3853 4.27454L85.054 5.01808L85.0586 5.01392L84.3853 4.27454ZM82.7064 25.0567L82.0035 25.7679L82.0222 25.7864L82.0418 25.8039L82.7064 25.0567ZM82.3416 24.2308L81.3415 24.2228L81.3416 24.2366L82.3416 24.2308ZM82.4665 8.60581L83.4666 8.6138L83.4665 8.59998L82.4665 8.60581ZM82.8217 7.77572L83.5329 8.47869L83.5329 8.47869L82.8217 7.77572ZM84.4416 7.76628L83.7023 8.43956L83.7377 8.47848L83.777 8.51346L84.4416 7.76628ZM84.8065 8.59216L85.8065 8.60016L85.8064 8.58633L84.8065 8.59216ZM84.6816 24.2172L83.6815 24.2092L83.6816 24.223L84.6816 24.2172ZM84.3264 25.0472L83.6152 24.3443L83.6152 24.3443L84.3264 25.0472ZM83.6251 3.56696C83.5867 3.56719 83.5727 3.56113 83.5717 3.56073C83.5712 3.5605 83.561 3.55707 83.5401 3.53635L82.1341 4.95879C82.5445 5.36439 83.066 5.57026 83.6368 5.56693L83.6251 3.56696ZM83.5401 3.53635C83.5191 3.51564 83.5156 3.50553 83.5153 3.50497C83.5149 3.50399 83.5087 3.49004 83.5085 3.45164L81.5085 3.46331C81.5118 4.03416 81.7238 4.55319 82.1341 4.95879L83.5401 3.53635ZM83.5083 3.47603L83.5357 1.99984L81.536 1.96274L81.5087 3.43892L83.5083 3.47603ZM83.5359 1.97546C83.5358 1.97341 83.536 1.97654 83.5346 1.98315C83.5331 1.98986 83.5309 1.99603 83.5289 2.00043C83.5269 2.00464 83.5267 2.00381 83.5311 1.99795C83.5357 1.99186 83.5459 1.97976 83.5647 1.96258L82.2182 0.483823C81.7981 0.866386 81.5323 1.37959 81.5359 1.98712L83.5359 1.97546ZM83.5647 1.96258C83.6446 1.88985 83.6768 1.89463 83.6874 1.89457L83.6757 -0.105393C83.1103 -0.102095 82.6158 0.121765 82.2182 0.483823L83.5647 1.96258ZM83.6874 1.89457C83.6894 1.89456 83.6863 1.89473 83.6797 1.89331C83.673 1.89185 83.6668 1.88964 83.6624 1.88758C83.6582 1.88561 83.659 1.88538 83.6649 1.88983C83.671 1.89446 83.6831 1.9046 83.7003 1.92346L85.179 0.576888C84.7965 0.15677 84.2833 -0.108935 83.6757 -0.105393L83.6874 1.89457ZM83.7367 1.96139C83.7514 1.97596 83.7595 1.98639 83.7635 1.99209C83.7674 1.99762 83.7682 1.99985 83.7679 1.99902C83.7677 1.99877 83.7676 1.99828 83.7674 1.9977C83.7672 1.99711 83.7671 1.99682 83.7672 1.99698C83.7672 1.99701 83.768 2.00094 83.7681 2.01011L85.768 1.99844C85.7647 1.4279 85.5358 0.927583 85.1426 0.538957L83.7367 1.96139ZM83.7682 1.98572L83.7408 3.4619L85.7405 3.49901L85.7679 2.02283L83.7682 1.98572ZM83.7407 3.48629C83.7407 3.49988 83.7395 3.50634 83.7393 3.50734C83.7392 3.50813 83.7394 3.50667 83.7404 3.50449C83.7414 3.50237 83.7414 3.50318 83.7383 3.5073C83.7351 3.51165 83.7273 3.5212 83.712 3.53516L85.0586 5.01392C85.4986 4.61323 85.7442 4.08115 85.7406 3.47463L83.7407 3.48629ZM83.7166 3.53102C83.6928 3.55244 83.6789 3.55833 83.6741 3.56019C83.6693 3.56204 83.6558 3.56679 83.6251 3.56696L83.6368 5.56693C84.1706 5.56382 84.6577 5.37447 85.054 5.01807L83.7166 3.53102ZM83.5305 24.3759C83.4748 24.3762 83.4348 24.3662 83.3711 24.3095L82.0418 25.8039C82.4606 26.1764 82.9738 26.3792 83.5421 26.3758L83.5305 24.3759ZM83.4094 24.3455C83.3666 24.3032 83.353 24.2764 83.3489 24.2672C83.3456 24.2597 83.3417 24.2489 83.3416 24.225L81.3416 24.2366C81.3451 24.8385 81.5917 25.3609 82.0035 25.7679L83.4094 24.3455ZM83.3416 24.2388L83.4665 8.6138L81.4665 8.59781L81.3416 24.2228L83.3416 24.2388ZM83.4665 8.59998C83.4663 8.57602 83.4701 8.56523 83.4733 8.55766C83.4772 8.54846 83.4906 8.5215 83.5329 8.47869L82.1105 7.07275C81.7035 7.48451 81.463 8.00981 81.4665 8.61164L83.4665 8.59998ZM83.5329 8.47869C83.5752 8.43589 83.602 8.42224 83.6112 8.4182C83.6187 8.41487 83.6294 8.41102 83.6534 8.41088L83.6417 6.41092C83.0399 6.41443 82.5174 6.66099 82.1104 7.07275L83.5329 8.47869ZM83.6534 8.41088C83.667 8.4108 83.6734 8.41204 83.6744 8.41224C83.6752 8.4124 83.6738 8.41212 83.6716 8.41114C83.6695 8.4102 83.6703 8.4102 83.6744 8.41326C83.6787 8.41648 83.6883 8.42423 83.7023 8.43956L85.181 7.09299C84.7803 6.65296 84.2483 6.40738 83.6417 6.41092L83.6534 8.41088ZM83.777 8.51346C83.7889 8.52406 83.7945 8.53104 83.7966 8.53381C83.7985 8.53641 83.7989 8.53743 83.7991 8.53776C83.7992 8.53816 83.8007 8.54152 83.8024 8.54968C83.8041 8.55811 83.8063 8.57364 83.8065 8.59799L85.8064 8.58633C85.8029 7.97992 85.5689 7.43061 85.1063 7.01909L83.777 8.51346ZM83.8065 8.58417L83.6816 24.2092L85.6815 24.2251L85.8064 8.60015L83.8065 8.58417ZM83.6816 24.223C83.6817 24.2469 83.678 24.2577 83.6748 24.2653C83.6708 24.2745 83.6575 24.3015 83.6152 24.3443L85.0376 25.7502C85.4446 25.3385 85.6851 24.8132 85.6816 24.2113L83.6816 24.223ZM83.6152 24.3443C83.5945 24.3652 83.5844 24.3688 83.5838 24.369C83.5828 24.3694 83.5689 24.3756 83.5305 24.3759L83.5421 26.3758C84.113 26.3725 84.632 26.1606 85.0376 25.7502L83.6152 24.3443Z" fill="black"/>
</g>
<defs>
<filter id="filter0_d_2_4" x="0.485657" y="0.780289" width="88.4568" height="39.6076" filterUnits="userSpaceOnUse" color-interpolation-filters="sRGB">
<feFlood flood-opacity="0" result="BackgroundImageFix"/>
<feColorMatrix in="SourceAlpha" type="matrix" values="0 0 0 0 0 0 0 0 0 0 0 0 0 0 0 0 0 0 127 0" result="hardAlpha"/>
<feOffset dy="4"/>
<feGaussianBlur stdDeviation="2"/>
<feComposite in2="hardAlpha" operator="out"/>
<feColorMatrix type="matrix" values="0 0 0 0 0 0 0 0 0 0 0 0 0 0 0 0 0 0 0.25 0"/>
<feBlend mode="normal" in2="BackgroundImageFix" result="effect1_dropShadow_2_4"/>
<feBlend mode="normal" in="SourceGraphic" in2="effect1_dropShadow_2_4" result="shape"/>
</filter>
</defs>
</svg>
